<svg width="633" height="633" viewBox="0 0 633 633" fill="none" xmlns="http://www.w3.org/2000/svg">
<mask id="mask0_37_2" style="mask-type:alpha" maskUnits="userSpaceOnUse" x="15" y="122" width="603" height="389">
<path d="M472.788 278.172C475.519 279.518 478.511 280.253 481.555 280.324C481.726 280.305 481.891 280.251 482.041 280.167C482.191 280.083 482.323 279.97 482.429 279.835C482.535 279.699 482.613 279.544 482.659 279.378C482.704 279.212 482.716 279.039 482.694 278.868C482.441 276.875 480.194 278.584 473.959 275.703L474.275 273.361C474.433 272.697 473.642 271.621 472.788 271.937C471.933 272.254 471.712 273.266 471.458 275.102C471.205 276.938 471.079 277.318 472.788 278.172ZM142.425 287.161C146.234 286.125 149.81 284.374 152.964 282.002C154.199 281.052 153.787 278.837 153.439 277.571C153.34 277.242 153.123 276.962 152.83 276.784C152.537 276.605 152.189 276.541 151.851 276.604C151.514 276.667 151.212 276.852 151.003 277.124C150.793 277.396 150.692 277.735 150.717 278.077C150.777 278.763 150.905 279.442 151.097 280.103C143.596 285.578 140.684 284.217 141.127 286.433C141.226 286.686 141.409 286.897 141.646 287.029C141.882 287.162 142.158 287.209 142.425 287.161ZM133.816 281.306C140.146 281.306 137.994 277.571 136.285 278.141L133.848 278.52C131.759 268.614 133.436 266.525 131.632 266.462C131.36 266.444 131.092 266.534 130.885 266.711C130.678 266.888 130.549 267.14 130.525 267.411C130.301 271.325 130.588 275.251 131.379 279.09C131.727 280.799 132.36 281.306 133.816 281.306ZM317.608 275.862C319.412 275.862 328.907 273.804 330.521 273.551C332.895 273.14 335.711 272.412 335.901 269.848C335.901 268.266 334.762 266.43 333.464 267.38C333.194 267.569 332.995 267.843 332.898 268.158C332.8 268.473 332.81 268.812 332.926 269.12C333.401 270.355 332.388 270.26 317.101 273.583C316.82 273.67 316.582 273.859 316.435 274.114C316.287 274.368 316.24 274.669 316.304 274.956C316.368 275.243 316.537 275.496 316.779 275.663C317.02 275.831 317.316 275.902 317.608 275.862ZM109.446 198.383C110.142 199.174 111.851 198.383 111.345 197.18C108.18 189.457 102.356 180.848 98.6847 172.366C98.115 171.005 96.9756 168.695 95.8678 168.568C95.7291 168.549 95.5877 168.568 95.4592 168.624C95.3308 168.68 95.2202 168.77 95.1399 168.885C94.4436 169.834 95.4564 172.461 95.9311 173.569C97.387 176.702 104.445 192.654 109.446 198.383ZM212.055 185.026C212.114 185.273 212.237 185.501 212.412 185.685C212.586 185.87 212.806 186.006 213.049 186.08C213.292 186.154 213.55 186.162 213.798 186.105C214.046 186.048 214.274 185.927 214.46 185.754C217.073 183.375 219.448 180.746 221.55 177.905C231.045 208.289 231.045 209.365 232.533 209.365C232.746 209.359 232.955 209.307 233.147 209.213C233.338 209.119 233.507 208.985 233.642 208.82C233.777 208.655 233.875 208.463 233.93 208.256C233.984 208.05 233.993 207.835 233.957 207.624C230.412 196.42 226.677 185.469 223.449 174.297C223.377 174.019 223.224 173.769 223.01 173.578C222.796 173.387 222.53 173.263 222.246 173.223C221.962 173.182 221.672 173.226 221.413 173.35C221.154 173.473 220.938 173.671 220.79 173.917C218.973 176.776 216.85 179.429 214.46 181.83C212.561 173.157 208.13 153.345 208.13 153.345C208.051 153.026 207.847 152.751 207.566 152.582C207.284 152.413 206.946 152.363 206.627 152.443C206.308 152.522 206.034 152.725 205.865 153.007C205.695 153.289 205.645 153.627 205.725 153.946C206.801 158.852 211.39 182.842 212.055 185.026ZM47.1901 349.67C36.9988 344.795 27.9153 339.795 17.4708 334.288C15.4452 333.212 14.0526 336.915 17.2176 337.769C26.3364 343.461 36.06 348.121 46.209 351.663C47.475 352.012 48.3612 350.366 47.1901 349.67ZM55.2925 276.59C55.5101 276.782 55.7813 276.904 56.0699 276.937C56.3584 276.971 56.6504 276.916 56.9067 276.78C58.9956 275.767 56.3053 273.266 57.3181 258.233C82.9863 289.218 81.562 288.427 82.6381 288.427C82.8609 288.441 83.0831 288.391 83.2784 288.282C83.4737 288.174 83.634 288.013 83.7404 287.816C83.8469 287.62 83.895 287.397 83.8791 287.175C83.8633 286.952 83.7841 286.739 83.6509 286.559C79.6314 281.495 62.034 259.625 57.3498 253.675C57.1736 253.452 56.9372 253.284 56.6685 253.191C56.3998 253.098 56.1101 253.084 55.8336 253.151C55.5572 253.217 55.3057 253.362 55.1088 253.567C54.9119 253.772 54.778 254.029 54.7228 254.308C54.0794 260.088 53.9735 265.916 54.4063 271.716C44.9113 263.202 35.8278 254.181 26.2378 245.889C25.9475 245.656 25.5843 245.533 25.2122 245.541C24.84 245.55 24.4827 245.689 24.203 245.934C23.9233 246.18 23.7392 246.516 23.683 246.884C23.6268 247.252 23.7021 247.628 23.8957 247.946C27.6304 253.738 48.7093 270.608 55.2925 276.59ZM304.948 159.2C304.948 159.51 305.071 159.808 305.291 160.028C305.51 160.248 305.808 160.371 306.119 160.371C306.429 160.371 306.727 160.248 306.947 160.028C307.166 159.808 307.29 159.51 307.29 159.2C307.832 147.575 307.345 135.924 305.834 124.385C305.801 124.08 305.681 123.792 305.488 123.554C305.295 123.317 305.037 123.14 304.745 123.047C304.454 122.953 304.141 122.946 303.846 123.026C303.55 123.106 303.284 123.27 303.08 123.499C301.656 125.334 305.074 131.126 304.948 159.2ZM390.593 214.176C414.678 173.537 413.381 175.563 413.191 174.835C412.653 172.999 411.133 173.885 398.948 177.557C402.113 166.321 406.069 154.326 408.696 142.963C408.751 142.596 408.666 142.221 408.459 141.913C408.251 141.605 407.936 141.386 407.575 141.299C407.214 141.212 406.833 141.263 406.507 141.442C406.182 141.621 405.936 141.915 405.816 142.267C402.24 154.927 398.695 167.302 395.277 179.456C395.222 179.707 395.231 179.968 395.304 180.215C395.378 180.461 395.512 180.685 395.696 180.866C395.879 181.046 396.105 181.177 396.353 181.246C396.601 181.315 396.862 181.319 397.112 181.26C397.112 181.26 405.5 178.665 408.886 177.557L388.662 213.1C388.542 213.354 388.524 213.644 388.61 213.911C388.696 214.178 388.88 214.403 389.125 214.539C389.37 214.676 389.658 214.714 389.93 214.647C390.203 214.579 390.439 214.411 390.593 214.176ZM616.89 307.005C615.244 306.214 584.797 325.141 584.48 325.362C583.373 326.154 584.48 328.116 585.62 327.515C587.456 326.692 616.542 310.518 617.523 308.778C617.598 308.62 617.641 308.449 617.65 308.274C617.659 308.099 617.633 307.925 617.574 307.76C617.515 307.596 617.425 307.444 617.307 307.315C617.19 307.185 617.048 307.08 616.89 307.005ZM536.309 270.829C536.309 270.829 566.82 247.567 572.517 243.136C573.751 242.154 572.517 239.971 571.061 240.129C565.318 240.266 559.599 240.912 553.97 242.06C562.139 233.344 569.374 223.797 575.555 213.575C576.6 211.865 574.068 210.093 573.055 211.834C566.082 223.208 557.784 233.716 548.336 243.136C547.323 244.117 547.956 246.522 549.602 246.301C555.189 244.878 560.884 243.925 566.63 243.452C566.63 243.452 542.449 262.917 534.98 269.089C534.854 269.29 534.793 269.526 534.804 269.763C534.816 270.001 534.899 270.229 535.043 270.418C535.188 270.607 535.386 270.747 535.612 270.821C535.838 270.894 536.081 270.897 536.309 270.829ZM492.664 179.203C512.097 145.717 515.483 140.843 512.224 140.02C510.831 139.672 510.894 139.798 490.48 178C490.384 178.282 490.391 178.588 490.498 178.865C490.606 179.143 490.807 179.373 491.068 179.517C491.328 179.66 491.631 179.707 491.923 179.65C492.215 179.592 492.477 179.434 492.664 179.203Z" fill="black"/>
<path d="M582.36 385.783C569.447 345.049 536.815 313.715 492.759 299.853C492.729 299.046 492.645 298.242 492.505 297.447C504.532 292.193 507.223 274.121 504.564 258.391C506.875 254.625 513.015 235.255 508.489 237.914L500.228 242.788C499.057 239.623 497.696 236.679 496.24 233.768C496.557 228.704 491.936 219.652 483.802 213.733C476.332 208.289 463.482 203.415 444.746 211.201C430.123 217.278 413.634 230.698 411.133 250.194C407.968 275.514 416.356 287.794 400.689 311.31C383.378 303.472 364.925 298.45 346.029 296.435C346.03 295.016 345.935 293.599 345.744 292.193C353.815 288.111 355.524 274.818 355.872 270.482C365.367 262.253 366.475 245.858 359.037 245.478C360.949 233.733 361.68 221.826 361.221 209.935C360.81 202.561 357.645 200.915 356.189 200.598C355.162 200.404 354.1 200.503 353.126 200.883C352.152 201.264 351.305 201.911 350.682 202.751C348.308 197.908 343.75 198.509 341.187 202.181C340.935 200.878 340.28 199.687 339.315 198.776C338.349 197.866 337.122 197.282 335.806 197.107C334.491 196.932 333.153 197.175 331.983 197.801C330.813 198.428 329.87 199.406 329.286 200.598C328.673 199.292 327.685 198.197 326.447 197.453C325.21 196.71 323.78 196.351 322.338 196.422C320.896 196.493 319.508 196.991 318.35 197.853C317.192 198.715 316.317 199.902 315.835 201.263C312.67 194.395 304.599 195.977 302.795 202.94C300.422 197.592 293.933 197.623 291.686 203.827C285.768 199.459 281.115 203.827 280.166 211.011C279.591 223.228 280.099 235.472 281.685 247.599C270.955 245.193 279.311 270.323 285.704 270.925C286.812 280.42 290.737 290.864 298.364 293.396C298.364 294.662 298.174 295.96 298.174 297.226C277.711 300.494 258.017 307.477 240.065 317.83C230.19 310.867 208.225 301.404 187.115 303.144C183.29 295.063 180.411 286.567 178.537 277.824C177.145 270.197 180.721 267.19 180.69 260.607C184.788 252.349 185.809 242.9 183.57 233.957C173.6 202.307 113.37 214.334 115.079 249.086C115.301 253.042 115.649 256.999 115.997 260.069C108.559 262.316 109.667 262.854 111.724 271.906C112.832 276.843 114.098 280.926 119.289 279.85C121.662 290.136 127.644 306.563 141.76 306.563C142.615 306.563 141.76 306.025 142.551 311.342C107.135 326.755 62.6669 355.652 51.1463 406.292C48.3611 418.509 46.6836 435.853 54.6594 448.956C63.4265 463.547 78.935 464.464 90.0758 463.737C87.468 478.065 86.6283 492.659 87.5754 507.192C87.5811 507.395 87.6426 507.593 87.753 507.763C87.8635 507.933 88.0187 508.07 88.2016 508.158C88.3846 508.247 88.5883 508.283 88.7904 508.263C88.9926 508.243 89.1854 508.168 89.3478 508.047C91.0569 507.034 87.702 505.958 93.0509 463.515C122.865 460.761 151.287 447.943 177.556 434.46C181.892 437.625 186.197 440.79 190.659 443.639C194.328 451.057 199.951 457.335 206.922 461.797C213.893 466.258 221.949 468.734 230.222 468.959C229.431 482.282 229.431 495.641 230.222 508.964C230.234 509.125 230.278 509.282 230.352 509.426C230.425 509.57 230.527 509.697 230.651 509.8C230.776 509.904 230.919 509.981 231.074 510.028C231.228 510.074 231.391 510.09 231.551 510.072C234.273 509.819 230.76 508.458 232.912 468.927C259.245 468.927 280.862 451.741 302.542 438.606C328.052 450.285 390.592 472.029 423.667 465.762C425.186 479.245 424.964 492.032 426.262 505.071C426.304 505.305 426.427 505.517 426.609 505.67C426.791 505.822 427.021 505.906 427.259 505.906C427.497 505.906 427.727 505.822 427.909 505.67C428.091 505.517 428.214 505.305 428.256 505.071C429.087 491.748 428.546 478.374 426.642 465.161C449.588 459.717 463.672 443.544 467.407 418.414C468.926 417.401 470.572 416.261 472.281 414.964C491.872 422.781 532.416 441.803 552.229 442.499C551.311 457.217 550.014 472.757 549.792 488.012C549.836 488.27 549.97 488.504 550.17 488.672C550.369 488.841 550.622 488.933 550.884 488.933C551.145 488.933 551.398 488.841 551.598 488.672C551.798 488.504 551.932 488.27 551.976 488.012C552.419 483.803 555.299 447.88 555.141 442.404C586.854 441.676 591.855 415.723 582.36 385.783ZM356.505 250.51C357.36 249.371 357.835 248.042 359.069 248.422C363.5 249.719 359.955 260.733 356.252 265.639C356.569 260.607 356.664 255.511 356.505 250.51ZM280.957 250.51C281.97 250.51 281.843 250.954 284.122 251.397L285.388 267.032C280.704 262.696 277.317 250.574 280.957 250.574V250.51ZM500.861 247.345C500.995 246.901 501.301 246.527 501.71 246.308C502.12 246.088 502.6 246.04 503.045 246.174C503.49 246.309 503.863 246.614 504.083 247.024C504.302 247.433 504.35 247.913 504.216 248.358C503.108 252.283 502.254 255.131 501.526 257.853C501.339 258.192 501.075 258.483 500.757 258.702C500.438 258.922 500.073 259.065 499.69 259.119C496.905 259.214 499.88 250.194 500.861 247.282V247.345ZM447.594 260.005C449.398 258.644 451.582 260.385 451.93 260.417C454.905 262.316 458.26 259.562 457.406 258.771L456.773 258.265C454.431 256.429 449.62 252.631 450.633 250.036C451.392 248.073 454.494 248.358 456.519 248.263C456.591 248.261 456.662 248.243 456.726 248.209C456.789 248.176 456.845 248.128 456.887 248.07C456.93 248.012 456.959 247.946 456.972 247.875C456.985 247.804 456.982 247.731 456.963 247.662C456.646 246.649 456.266 245.636 455.886 244.497C467.847 238.565 480.962 235.324 494.31 235.002C495.67 238.167 496.842 241.174 497.886 244.149C493.93 246.396 489.435 248.865 488.391 253.359C487.451 253.242 486.496 253.338 485.598 253.639C484.699 253.94 483.88 254.44 483.2 255.1C478.231 249.118 457.659 249.624 453.513 249.782C448.164 250.004 462.28 260.797 466.173 263.835C479.244 273.995 487.79 267 484.53 257.727C484.987 257.166 485.587 256.741 486.267 256.495C486.948 256.25 487.682 256.194 488.391 256.334C488.509 256.935 488.7 257.52 488.961 258.075C488.803 257.997 488.63 257.956 488.454 257.956C488.279 257.956 488.105 257.997 487.948 258.075C486.65 258.898 487.948 260.005 490.923 265.291C490.556 265.664 490.165 266.013 489.752 266.335C488.549 267.222 489.594 271.083 493.613 266.335C494.215 265.607 493.075 263.487 491.809 261.62C493.337 262.661 495.168 263.164 497.013 263.049C498.859 262.935 500.613 262.209 502 260.987C503.384 269.484 502.6 278.193 499.722 286.307C496.557 294.061 488.613 294.504 490.227 297.447C490.644 307.882 489.794 318.329 487.695 328.559C479.561 326.787 463.546 306.942 457.152 297.732C457.815 290.036 456.822 282.288 454.241 275.008C452.12 271.336 447.911 269.659 446.803 265.513C446.371 264.588 446.215 263.558 446.356 262.547C446.496 261.536 446.926 260.587 447.594 259.816V260.005ZM495.576 254.72C495.227 255.764 495.006 257.22 493.866 257.22C492.727 257.22 492.157 255.891 492.284 254.752C492.411 253.612 492.727 250.985 493.93 250.289C494.161 250.174 494.416 250.115 494.674 250.115C494.932 250.115 495.186 250.174 495.417 250.289C496.905 250.7 496.114 252.916 495.576 254.53V254.72ZM478.516 261.999C478.168 262.854 477.82 264.405 476.807 264.88C476.63 264.966 476.435 265.011 476.237 265.011C476.04 265.011 475.845 264.966 475.668 264.88C473.769 264.183 475.858 257.125 477.567 255.764C477.716 255.612 477.901 255.501 478.105 255.439C478.308 255.378 478.524 255.369 478.733 255.413C478.941 255.457 479.135 255.553 479.296 255.692C479.457 255.831 479.581 256.008 479.656 256.207C480.32 257.663 478.706 261.335 478.516 261.809V261.999ZM471.585 258.929C471.173 259.752 470.983 260.512 469.907 260.512C469.654 260.529 469.401 260.485 469.169 260.381C468.937 260.278 468.734 260.119 468.578 259.919C468.422 259.72 468.317 259.484 468.273 259.234C468.229 258.984 468.247 258.728 468.325 258.486C468.673 257.442 469.053 255.068 470.319 254.435C470.519 254.342 470.737 254.292 470.958 254.287C471.179 254.281 471.398 254.322 471.603 254.405C471.808 254.488 471.993 254.612 472.148 254.77C472.303 254.927 472.423 255.115 472.503 255.321C472.946 256.366 472.218 257.79 471.585 258.929ZM455.76 299.505C464.748 315.013 488.423 337.485 490.258 329.952C492.329 321.01 493.285 311.846 493.107 302.67C536.467 317.988 565.902 346.062 578.72 383.947C569.442 379.518 559.247 377.349 548.969 377.617C548.526 367.204 534.252 347.075 528.776 341.029C527.669 339.795 525.611 341.378 526.814 342.612C535.023 351.908 541.306 362.741 545.298 374.483C529.789 362.805 498.551 346.505 455.728 359.924C444.619 340.961 428.397 325.507 408.918 315.33C422.935 306.163 439.055 300.717 455.76 299.505ZM290.705 228.102C309.738 222.907 329.736 222.332 349.036 226.425C348.711 231.788 348.881 237.17 349.542 242.503H348.973C346.346 230.413 329.508 226.678 323.843 239.338C320.948 238.356 317.811 238.356 314.917 239.338C309.442 227.944 293.585 231.615 290.673 242.883H290.072C290.737 237.986 290.949 233.038 290.705 228.102ZM333.749 254.15C334.319 252.536 339.446 240.572 342.769 240.224C343.046 240.221 343.319 240.283 343.567 240.406C343.815 240.53 344.029 240.71 344.193 240.933C344.357 241.156 344.466 241.414 344.51 241.687C344.554 241.96 344.532 242.24 344.447 242.503C341.621 246.528 339.103 250.76 336.914 255.163C336.123 257.125 333.021 256.366 333.749 254.15ZM329.16 249.719C328.78 250.669 327.071 251.238 326.47 250.131C325.868 249.023 327.324 244.813 331.439 238.642C332.483 237.091 333.464 236.331 334.319 236.458C334.597 236.537 334.851 236.684 335.06 236.884C335.268 237.084 335.425 237.333 335.515 237.607C335.606 237.882 335.628 238.175 335.579 238.46C335.531 238.745 335.413 239.014 335.237 239.243C332.828 242.498 330.79 246.012 329.16 249.719ZM301.624 254.973C302.985 251.998 304.504 248.991 305.96 246.048C306.116 245.764 306.345 245.527 306.623 245.362C306.902 245.197 307.219 245.11 307.543 245.11C307.867 245.11 308.184 245.197 308.463 245.362C308.741 245.527 308.97 245.764 309.125 246.048C309.324 246.348 309.43 246.7 309.43 247.061C309.43 247.421 309.324 247.773 309.125 248.073C307.733 250.827 306.309 253.707 304.789 256.492C303.587 258.075 300.675 256.872 301.624 254.973ZM297.795 250.985L297.605 251.207C296.624 252.631 294.155 251.713 294.82 249.909C296.647 245.046 298.981 240.389 301.783 236.015C303.144 234.369 305.897 235.793 304.948 237.724C302.7 242.218 299.947 246.428 297.795 250.985ZM286.496 251.27C288.521 250.415 289.091 248.105 289.661 246.111L290.325 245.921C290.159 248.117 290.429 250.324 291.119 252.415C291.809 254.506 292.905 256.44 294.345 258.106C296.052 259.783 298.191 260.952 300.524 261.484C302.857 262.015 305.291 261.888 307.556 261.117C309.821 260.345 311.827 258.96 313.35 257.115C314.873 255.27 315.854 253.038 316.183 250.669C315.856 253.717 315.719 256.782 315.772 259.847C315.772 261.746 315.329 264.12 317.671 264.278H320.836C322.482 264.278 322.925 261.43 321.026 261.398H318.684C318.499 255.759 318.806 250.114 319.602 244.529C319.823 242.978 317.576 242.756 317.259 244.212C315.867 251.017 317.259 247.124 316.025 242.092C318.235 241.299 320.652 241.299 322.861 242.092C322.165 244.629 322.027 247.288 322.459 249.883C322.891 252.479 323.881 254.95 325.362 257.125C326.49 258.586 327.918 259.788 329.551 260.649C331.184 261.51 332.983 262.009 334.826 262.115C336.668 262.22 338.512 261.927 340.232 261.258C341.952 260.588 343.508 259.556 344.795 258.233C347.904 254.763 349.559 250.23 349.416 245.573H350.017C350.397 248.327 350.967 252.125 353.878 251.903C353.562 262.727 354.511 281.274 345.934 288.047C344.827 288.934 343.561 289.946 343.402 290.959C343.006 294.313 343.006 297.702 343.402 301.055C344.32 309.823 328.97 327.167 321.026 334.573C305.707 313.747 301.308 311.69 301.339 293.428C301.339 291.592 301.118 291.307 299.852 290.674C287.034 284.471 288.205 266.589 286.496 251.27ZM298.333 300.011C298.681 309.728 306.309 322.862 319.76 337.01C322.482 340.555 346.536 311.025 346.061 304.632V299.283C410.848 306.911 457.279 344.194 464.685 394.455C437.783 389.169 403.791 395.372 398.03 396.48C395.56 380.74 390.905 365.421 384.199 350.968C384.086 350.686 383.865 350.462 383.586 350.343C383.308 350.224 382.993 350.221 382.712 350.335C382.43 350.448 382.206 350.668 382.087 350.947C381.968 351.226 381.965 351.541 382.079 351.822C387.898 366.088 392.143 380.945 394.739 396.132C378.091 378.598 352.771 370.812 317.481 372.395C296.24 373.379 275.14 376.378 254.466 381.352C256.12 371.7 260.059 362.584 265.955 354.766C266.084 354.53 266.123 354.255 266.065 353.993C266.006 353.73 265.855 353.498 265.638 353.339C265.421 353.18 265.154 353.106 264.886 353.13C264.618 353.153 264.368 353.274 264.182 353.468C257.532 361.685 253.165 371.51 251.522 381.953C228.576 387.457 206.291 395.427 185.057 405.722C187.969 343.72 245.287 310.487 298.333 300.011ZM161.067 241.395C161.034 244.4 161.214 247.404 161.605 250.384C150.211 250.669 132.107 255.1 118.624 259.277C118.276 256.492 117.485 251.428 117.453 248.422C131.019 241.956 146.156 239.517 161.067 241.395ZM151.002 258.391C144.672 269.152 146.033 271.051 143.912 271.051C143.674 271.066 143.437 271.023 143.219 270.926C143.001 270.83 142.809 270.682 142.66 270.496C142.511 270.31 142.409 270.09 142.363 269.857C142.316 269.623 142.327 269.381 142.393 269.152C145.273 258.265 148.027 256.239 149.419 255.986C149.723 255.924 150.038 255.955 150.324 256.074C150.61 256.192 150.854 256.394 151.025 256.653C151.195 256.912 151.284 257.216 151.28 257.526C151.276 257.835 151.179 258.137 151.002 258.391ZM141.222 260.765C140.051 262.696 139.766 265.386 138.057 264.974C136.348 264.563 137.582 260.702 138.595 258.644C139.608 256.587 140.494 256.556 141.096 256.714C141.434 256.806 141.736 257.002 141.957 257.275C142.179 257.547 142.309 257.882 142.33 258.233C142.206 259.164 141.822 260.042 141.222 260.765ZM117.675 267.095C117.326 267.918 117.295 270.45 115.586 270.45C115.253 270.463 114.926 270.364 114.656 270.169C114.386 269.974 114.19 269.694 114.098 269.374C113.931 267.16 114.635 264.968 116.06 263.265C116.354 263.003 116.724 262.84 117.116 262.8C117.509 262.76 117.903 262.845 118.244 263.044C119.004 263.55 118.846 264.88 117.675 267V267.095ZM118.846 274.469C121.726 264.12 123.372 262.601 124.353 262.379C124.554 262.333 124.765 262.344 124.961 262.411C125.157 262.478 125.33 262.598 125.46 262.759C125.891 263.258 126.107 263.906 126.062 264.563L121.884 275.356C121.754 275.759 121.469 276.093 121.092 276.286C120.715 276.479 120.277 276.514 119.874 276.384C119.471 276.254 119.137 275.969 118.944 275.592C118.751 275.216 118.715 274.777 118.846 274.375V274.469ZM122.011 279.249C128.087 277.476 130.05 277.983 129.385 268.741C129.164 266.114 128.657 260.132 131.316 260.227C133.468 260.227 133.531 270.228 136.728 273.33C139.925 276.432 144.071 274.248 147.552 273.33C157.047 270.735 154.958 266.684 154.262 254.119L162.238 253.486C165.814 272.032 170.625 258.138 173.853 256.049C175.911 254.752 177.683 257.6 178.063 259.784C178.791 264.468 174.898 269.595 175.721 276.463C177.586 286.404 180.779 296.049 185.216 305.138C178.284 318.305 158.376 330.458 149.514 335.269C145.78 321.723 145.463 303.936 143.184 303.999C132.677 304.062 125.777 296.118 121.884 279.154L122.011 279.249ZM142.836 314.38C143.406 319.159 145.748 339.7 149.166 337.991C157.775 333.94 183.981 316.722 187.716 305.645C193.255 306.911 210.536 303.556 237.375 319.729C217.569 331.559 201.677 348.948 191.672 369.736C166.067 366.571 134.386 362.615 107.768 376.667C115.902 357.487 120.776 355.588 118.466 354.069C118.346 353.987 118.211 353.931 118.069 353.902C117.927 353.874 117.781 353.874 117.639 353.904C117.497 353.934 117.362 353.991 117.244 354.074C117.125 354.157 117.024 354.263 116.947 354.386C116.124 355.62 104.571 374.705 104.287 378.598C99.824 381.32 90.2973 388.283 87.4488 393.758C75.8133 393.985 64.4749 397.472 54.7227 403.823C64.3443 366.571 94.76 335.649 142.71 314.285L142.836 314.38ZM60.7679 452.596C48.6776 439.936 51.2729 418.762 53.7732 407.146C84.6636 386.859 125.492 395.531 175.183 432.973C158.471 440.126 85.4549 478.201 60.7679 452.596ZM90.6455 393.695C115.776 365.875 152.11 367.647 190.375 372.363C180.563 394.993 179.709 418.888 187.906 438.385C159.421 417.053 125.777 393.6 90.6455 393.6V393.695ZM232.691 466.49C201.515 466.49 184.773 439.113 185.216 408.729C229.526 388.821 268.234 378.63 310.645 375.686C349.384 372.996 375.464 380.054 392.555 397.841C309.062 416.546 274.595 466.395 232.691 466.395V466.49ZM424.11 463.009C393.124 470.003 341.82 451.709 305.359 437.119C363.468 402.81 415.754 389.865 465.097 397.556C468.99 432.909 454.431 456.14 424.11 463.009ZM468.008 415.09C469.651 396.789 465.782 378.415 456.899 362.33C490.891 353.531 519.598 358.658 544.538 377.965C511.78 380.402 478.769 405.975 467.977 415.09H468.008ZM554.096 439.682C534.727 439.682 493.961 420.692 475.193 413.033C495.259 397.841 519.028 381.731 547.64 380.592C558.817 379.902 569.965 382.346 579.828 387.65C588.31 416.262 584.069 439.493 554.065 439.682H554.096Z" fill="black"/>
</mask>
<g mask="url(#mask0_37_2)">
<rect width="618" height="633" fill="#D9D9D9"/>
</g>
</svg>
