<svg width="592" height="592" viewBox="0 0 592 592" fill="none" xmlns="http://www.w3.org/2000/svg">
<mask id="mask0_38_7" style="mask-type:alpha" maskUnits="userSpaceOnUse" x="56" y="14" width="480" height="564">
<path d="M284.664 280.134C285.747 280.465 286.914 280.375 287.934 279.883C288.953 279.391 289.75 278.533 290.164 277.479C290.579 276.426 290.581 275.255 290.171 274.2C289.76 273.145 288.967 272.283 287.95 271.787C287.034 271.427 286.044 271.293 285.065 271.396C284.086 271.499 283.146 271.836 282.326 272.379C281.703 272.952 281.255 273.688 281.031 274.503C280.808 275.319 280.819 276.18 281.063 276.99C281.307 277.8 281.775 278.524 282.411 279.08C283.048 279.636 283.829 280.002 284.664 280.134ZM282.977 275.576C282.977 273.09 287.92 272.794 288.394 275.576C289.311 279.454 282.829 279.217 282.977 275.576ZM281.201 90.6944C276.642 96.052 277.738 102.949 284.901 106.323C286.522 105.905 288.175 105.628 289.844 105.494C291.746 105.619 293.636 105.886 295.498 106.294C297.472 105.107 299.008 103.31 299.873 101.175C300.738 99.039 300.885 96.6802 300.293 94.4536C299.741 92.5172 298.666 90.7709 297.184 89.4075C295.703 88.0441 293.873 87.1167 291.898 86.7277C289.922 86.3388 287.878 86.5034 285.99 87.2034C284.103 87.9034 282.445 89.1116 281.201 90.6944ZM279.543 142.08C279.508 141.905 279.414 141.748 279.277 141.635C279.139 141.522 278.966 141.461 278.788 141.461C278.61 141.461 278.438 141.522 278.3 141.635C278.163 141.748 278.068 141.905 278.034 142.08C277.814 143.729 277.685 145.389 277.649 147.053C277.727 147.29 277.877 147.496 278.079 147.642C278.281 147.788 278.524 147.867 278.774 147.867C279.023 147.867 279.266 147.788 279.468 147.642C279.67 147.496 279.821 147.29 279.898 147.053C280.046 146.55 279.543 142.583 279.543 142.08ZM302.898 142.613C302.863 142.438 302.769 142.281 302.631 142.168C302.493 142.055 302.321 141.993 302.143 141.993C301.965 141.993 301.792 142.055 301.655 142.168C301.517 142.281 301.423 142.438 301.388 142.613C301.388 143.027 300.885 147.023 301.033 147.586C301.111 147.823 301.261 148.029 301.463 148.175C301.665 148.321 301.908 148.4 302.158 148.4C302.407 148.4 302.65 148.321 302.852 148.175C303.054 148.029 303.205 147.823 303.282 147.586C303.43 147.023 302.898 143.057 302.898 142.613ZM279.75 132.342C276.198 132.046 274.57 137.551 274.511 137.788C274.46 137.957 274.478 138.139 274.562 138.294C274.645 138.45 274.786 138.566 274.955 138.617C275.124 138.668 275.306 138.65 275.462 138.566C275.617 138.483 275.733 138.342 275.784 138.173C275.962 137.729 277.856 134.502 280.076 134.621C281.201 134.71 281.763 132.49 279.75 132.342ZM303.786 138.587C303.731 137.544 303.358 136.543 302.718 135.717C302.078 134.892 301.201 134.282 300.204 133.97C299.906 133.891 299.588 133.934 299.322 134.09C299.055 134.245 298.862 134.5 298.783 134.798C298.705 135.097 298.748 135.414 298.903 135.68C299.059 135.947 299.314 136.141 299.612 136.219C300.339 136.478 300.991 136.914 301.508 137.487C302.025 138.061 302.39 138.754 302.572 139.505C302.619 139.666 302.728 139.801 302.875 139.882C303.022 139.962 303.195 139.981 303.356 139.934C303.517 139.887 303.653 139.778 303.733 139.631C303.814 139.484 303.833 139.311 303.786 139.15C303.786 139.15 303.845 138.824 303.786 138.587ZM290.081 154.305C290.199 154.266 290.302 154.191 290.375 154.09C290.449 153.989 290.488 153.867 290.488 153.742C290.488 153.618 290.449 153.496 290.375 153.395C290.302 153.294 290.199 153.219 290.081 153.18C288.719 152.914 287.121 152.825 287.121 151.493C287.277 149.831 287.534 148.18 287.89 146.55C287.907 146.403 287.87 146.254 287.787 146.132C287.704 146.009 287.58 145.92 287.437 145.881C287.295 145.842 287.143 145.855 287.009 145.918C286.875 145.981 286.767 146.089 286.706 146.224C285.97 148.133 285.454 150.119 285.167 152.144C285.226 153.92 287.121 155.252 290.081 154.305ZM293.781 158.182C293.129 158.888 292.329 159.439 291.439 159.798C290.548 160.156 289.589 160.312 288.63 160.254C287.974 160.144 287.347 159.898 286.791 159.531C286.236 159.164 285.763 158.684 285.404 158.123C285.322 157.97 285.182 157.856 285.015 157.806C284.849 157.756 284.669 157.774 284.516 157.857C284.363 157.939 284.249 158.079 284.199 158.246C284.149 158.412 284.167 158.592 284.25 158.745C284.723 159.771 285.465 160.65 286.397 161.29C287.329 161.93 288.416 162.306 289.544 162.378C290.672 162.451 291.798 162.218 292.804 161.703C293.811 161.189 294.659 160.412 295.261 159.455C295.646 158.478 294.58 157.472 293.781 158.182ZM293.455 334.066C293.529 334.117 293.617 334.144 293.707 334.144C293.797 334.144 293.884 334.117 293.958 334.066C297.126 332.082 320.954 313.138 322.907 311.451C322.972 311.391 323.018 311.312 323.038 311.226C323.058 311.14 323.052 311.049 323.02 310.966C322.988 310.883 322.932 310.812 322.859 310.761C322.786 310.711 322.7 310.683 322.611 310.682C322.611 310.682 273.771 309.734 265.158 309.438C264.654 309.438 264.566 309.971 264.832 310.208C266.401 311.747 285.315 327.82 293.455 334.066ZM396.345 562.074C398.565 557.546 394.421 549.938 392.556 546.86C392.52 546.785 392.463 546.722 392.392 546.677C392.322 546.633 392.24 546.61 392.156 546.61C392.073 546.61 391.991 546.633 391.921 546.677C391.85 546.722 391.793 546.785 391.757 546.86C390.247 549.82 387.08 557.575 390.099 562.045C392.142 565.36 394.746 565.597 396.345 562.074ZM216.081 530.254C215.785 530.432 194.118 542.894 193.289 544.166C192.46 545.439 192.49 546.386 193.614 546.475C202.494 547.038 205.898 547.778 206.254 548.192C206.816 550.175 207.438 558.226 208.622 559.825C208.748 560.022 208.928 560.178 209.141 560.275C209.354 560.372 209.591 560.405 209.822 560.371C210.054 560.337 210.27 560.236 210.446 560.081C210.621 559.927 210.749 559.725 210.812 559.499C212.055 554.822 215.962 540.259 216.732 537.862C217.502 535.464 218.804 529.278 216.081 530.254ZM215.666 533.037C215.37 534.99 213.95 540.644 209.746 555.089C209.399 552.075 208.764 549.102 207.852 546.209C204.31 545.15 200.652 544.523 196.959 544.344C203.057 540.555 209.45 536.914 215.578 533.037H215.666ZM231.384 542.479C231.627 542.456 231.856 542.351 232.03 542.179C232.205 542.008 232.315 541.782 232.343 541.539C232.371 541.296 232.314 541.051 232.183 540.845C232.051 540.639 231.853 540.484 231.621 540.407C230.526 540.087 229.386 539.947 228.246 539.993V535.701C228.246 535.497 228.165 535.301 228.021 535.157C227.877 535.012 227.681 534.931 227.477 534.931C227.273 534.931 227.077 535.012 226.933 535.157C226.788 535.301 226.707 535.497 226.707 535.701C226.707 537.24 226.441 538.661 226.322 540.111C224.931 540.111 223.54 540.378 222.09 540.585C220.639 540.792 221.261 542.45 222.326 542.361C223.578 542.287 224.834 542.287 226.086 542.361C226.086 543.663 225.819 545.054 225.76 546.386C225.807 546.694 225.962 546.975 226.199 547.178C226.435 547.381 226.736 547.493 227.048 547.493C227.359 547.493 227.66 547.381 227.896 547.178C228.133 546.975 228.288 546.694 228.335 546.386V542.45C229.35 542.525 230.368 542.535 231.384 542.479ZM302.69 526.288C302.437 525.543 301.966 524.891 301.338 524.416C300.71 523.941 299.954 523.665 299.168 523.624C296.445 523.624 293.899 526.969 291.738 530.077H291.531C289.43 528.597 288.778 528.597 286.825 530.669C284.22 533.481 285.315 533.984 288.69 536.589C286.41 539.756 280.668 547.926 279.81 549.406C278.951 550.886 276.435 555.059 279.218 557.368C279.789 557.777 280.48 557.984 281.182 557.957C281.884 557.931 282.557 557.671 283.095 557.22C287.394 552.007 291.35 546.519 294.935 540.792C297.895 542.568 298.132 542.923 300.441 541.029C300.776 540.81 301.057 540.518 301.262 540.174C301.467 539.83 301.591 539.444 301.625 539.046C301.625 537.595 299.878 536.589 298.665 535.612C299.701 534.102 300.618 532.652 301.447 531.142C301.997 530.473 302.393 529.692 302.608 528.853C302.823 528.015 302.851 527.139 302.69 526.288ZM293.337 531.172C294.317 529.847 295.364 528.572 296.474 527.354C297.925 525.785 298.99 525.4 299.967 526.081C301.625 527.176 300.707 528.153 297.303 534.339L293.337 531.172ZM280.757 555.858C279.07 555.474 280.165 552.898 280.964 551.359C281.763 549.82 287.772 541.118 290.081 537.595C290.998 538.246 292.538 539.253 293.278 539.697C291.265 543.13 285.552 551.537 284.398 552.839C283.243 554.142 282.178 556.184 280.757 555.858ZM289.193 530.758L289.666 530.935C290.14 531.113 299.79 538.986 299.79 539.164C299.359 539.802 298.793 540.338 298.132 540.733C297.007 539.845 290.022 535.109 287.417 533.066C287.959 532.26 288.553 531.489 289.193 530.758ZM354.49 545.528C354.49 545.528 367.929 559.943 369.113 560.328C371.096 560.861 381.811 548.488 383.232 546.83C384.623 548.014 385.334 548.222 386.902 546.653C387.873 545.638 388.681 544.48 389.3 543.219C389.403 543.024 389.442 542.802 389.41 542.583C389.378 542.365 389.277 542.163 389.122 542.006C374.056 526.732 371.362 523.89 370.741 523.654C368.787 522.825 367.781 525.222 366.626 526.081C365.028 527.62 364.17 528.094 366.804 531.054C354.786 544.078 353.839 543.989 354.49 545.528ZM367.159 528.153C367.948 527.243 368.831 526.419 369.794 525.696C369.794 525.696 378.674 534.576 387.08 542.864C386.542 543.866 385.887 544.801 385.126 545.646C384.801 545.321 367.633 528.656 367.041 528.153H367.159ZM381.959 545.469C369.054 559.144 370.356 558.611 368.994 557.309C368.195 556.628 358.279 546.416 356.77 544.67C357.835 543.486 367.662 532.83 368.314 532.238C368.166 532.356 379.828 543.634 381.841 545.469H381.959Z" fill="black"/>
<path d="M366.33 539.223C363.37 542.361 361.062 543.278 361.387 544.966C362.833 547.108 364.499 549.092 366.36 550.886C366.473 550.978 366.615 551.03 366.761 551.032C366.908 551.034 367.051 550.987 367.167 550.898C367.283 550.809 367.366 550.684 367.402 550.542C367.439 550.4 367.426 550.25 367.366 550.116C367.366 550.116 365.028 546.12 364.022 544.788C364.258 544.492 366.774 541.118 367.455 540.348C367.604 540.199 367.688 539.997 367.688 539.786C367.688 539.575 367.604 539.372 367.455 539.223C367.306 539.074 367.104 538.99 366.893 538.99C366.682 538.99 366.479 539.074 366.33 539.223Z" fill="black"/>
<path d="M410.02 575.543L337.44 575.069C337.44 570.007 335.812 527.975 335.694 524.394C335.694 523.299 333.948 523.299 334.007 524.394C334.007 527.354 335.072 572.287 335.22 575.039H256.218C256.218 570.244 255.448 532.623 255.389 530.047C255.389 529.835 255.305 529.632 255.155 529.482C255.005 529.332 254.802 529.248 254.59 529.248C254.378 529.248 254.175 529.332 254.025 529.482C253.875 529.632 253.791 529.835 253.791 530.047V575.039C247.634 575.039 182.751 575.039 173.871 575.691C173.682 575.727 173.511 575.828 173.388 575.977C173.265 576.125 173.198 576.312 173.198 576.505C173.198 576.697 173.265 576.884 173.388 577.033C173.511 577.181 173.682 577.282 173.871 577.319C181.774 577.674 402.916 578.088 410.168 576.401C410.264 576.364 410.344 576.295 410.395 576.206C410.445 576.116 410.464 576.012 410.446 575.911C410.429 575.81 410.377 575.718 410.299 575.65C410.221 575.583 410.122 575.545 410.02 575.543ZM197.136 41.4401C197.817 42.6241 204.744 43.0089 205.365 42.7721C205.774 42.6287 206.126 42.3592 206.372 42.0025C208.72 43.9608 211.181 45.7794 213.742 47.4489C214.108 47.7442 214.531 47.9599 214.984 48.0822C215.438 48.2046 215.912 48.2308 216.376 48.1593C217.62 47.8041 240.974 33.8921 241.329 33.6553C242.868 32.7081 242.898 31.7609 242.691 31.1393C242.247 29.9257 218.389 18.7369 214.571 14.5633C214.46 14.4832 214.335 14.4258 214.202 14.3943C214.069 14.3628 213.931 14.358 213.796 14.38C213.662 14.402 213.532 14.4504 213.416 14.5225C213.3 14.5946 213.2 14.689 213.12 14.8001C210.16 18.2041 207.526 21.6969 204.832 25.1601C202.12 25.0765 199.41 25.3755 196.781 26.0481C196.491 31.18 196.61 36.327 197.136 41.4401ZM217.472 32.5601C217.17 33.3867 216.596 34.0861 215.844 34.5433C214.364 35.0465 212.884 33.6553 212.38 33.0337C210.752 31.1393 214.452 27.1137 216.909 30.2809C217.216 30.6014 217.43 30.9991 217.529 31.4317C217.629 31.8642 217.609 32.3156 217.472 32.7377V32.5601ZM215.34 27.0841C214.455 26.9284 213.543 27.022 212.707 27.3543C211.871 27.6865 211.144 28.2445 210.607 28.9659C210.07 29.6873 209.744 30.5437 209.665 31.4397C209.586 32.3357 209.757 33.236 210.16 34.0401C210.765 35.0342 211.648 35.8283 212.701 36.3232C213.754 36.818 214.929 36.9917 216.08 36.8225C216.875 36.5325 217.582 36.0423 218.131 35.3993C218.681 34.7563 219.055 33.9822 219.218 33.1521C222.474 33.1521 233.663 33.1521 238.132 32.9449L216.08 45.7913C214.837 45.2585 207.556 39.8713 206.668 39.1609C206.668 37.5329 206.668 27.7945 206.46 26.2257C208.947 23.2657 211.492 20.0985 213.92 16.9313C217.531 19.8913 234.196 28.7713 239.08 31.3465H219.307C219.178 30.3276 218.721 29.3783 218.006 28.6415C217.291 27.9047 216.355 27.4204 215.34 27.2617V27.0841ZM198.764 27.6169L204.24 27.4097C204.24 28.3273 204.596 39.2497 204.448 40.7889C202.579 40.9121 200.702 40.8227 198.853 40.5225C199.031 38.4801 198.883 30.1033 198.764 27.7945V27.6169ZM106.087 183.224C106.397 183.403 106.75 183.498 107.108 183.498C107.467 183.498 107.819 183.403 108.129 183.224C110.468 182.07 115.115 178.014 128.672 169.046C129.07 168.83 129.412 168.525 129.674 168.156C129.936 167.786 130.109 167.362 130.181 166.914C130.181 166.914 130.684 154.275 129.974 153.861C127.695 152.44 121.094 147.941 119.2 148.237C118.963 148.237 93.9804 163.806 93.9212 164.546C93.6739 167.777 93.6244 171.019 93.7733 174.255C97.6779 177.51 101.791 180.506 106.087 183.224ZM95.5789 166.589C97.8581 168.128 104.222 172.509 105.968 173.397V180.146C94.898 172.746 95.6085 173.989 95.6973 171.799C95.7269 170.585 95.6381 167.743 95.5789 166.589ZM107.182 170.94C106.994 171.079 106.765 171.155 106.531 171.155C106.296 171.155 106.068 171.079 105.88 170.94C105.406 170.644 98.7757 165.908 96.9997 164.635C120.265 149.835 119.436 149.658 120.68 150.102C121.272 150.338 124.054 152.114 127.813 154.601C123.373 158.39 107.626 170.644 107.182 170.94ZM127.902 167.003C127.28 167.595 111.267 178.222 107.715 180.531V173.131C109.816 171.532 123.699 160.639 128.02 156.939C128.139 166.707 128.316 166.707 128.05 167.003H127.902ZM434.173 185.03C439.701 184.901 445.079 183.207 449.684 180.146C451.98 178.699 453.71 176.506 454.583 173.936C455.456 171.365 455.419 168.573 454.479 166.026C456.432 164.546 462.678 159.248 463.892 158.094C466.408 158.242 469.338 153.772 470.907 151.345C471.558 150.338 472.416 149.302 471.972 148.148C467.977 143.919 463.747 139.917 459.304 136.16C459.007 135.846 458.621 135.63 458.198 135.54C457.775 135.45 457.335 135.491 456.936 135.657C453.988 138.515 451.331 141.658 449.003 145.04C448.901 145.478 448.953 145.938 449.151 146.342C449.151 146.55 445.036 158.478 444.533 159.929C442.318 160.153 440.261 161.179 438.751 162.815C437.24 164.451 436.381 166.583 436.334 168.809C435.979 177.452 442.816 180.235 433.907 183.431C433.783 183.537 433.689 183.674 433.634 183.827C433.578 183.98 433.563 184.145 433.59 184.306C433.617 184.466 433.684 184.617 433.787 184.744C433.889 184.871 434.022 184.969 434.173 185.03ZM451.282 145.573C453.206 142.748 455.472 140.173 458.031 137.906C459.629 139.179 468.865 147.704 469.871 149.095C469.131 150.368 464.987 155.755 463.951 155.874C463.862 155.785 451.667 145.928 451.282 145.573ZM453.413 164.102C451.904 161.891 449.587 160.36 446.96 159.84C447.552 157.857 449.713 150.605 450.453 147.674C452.703 149.598 458.268 154.275 461.672 156.969C460.34 158.301 455.308 162.593 453.413 164.102ZM438.909 182.691C441.218 180.59 440.656 177.837 439.59 175.202C437.696 169.282 438.258 165.464 441.425 163.362C442.243 162.844 443.155 162.494 444.11 162.332C445.064 162.17 446.041 162.201 446.984 162.421C447.927 162.642 448.816 163.048 449.6 163.616C450.383 164.184 451.046 164.903 451.549 165.731C456.225 173.101 447.464 181.004 438.909 182.691ZM249.114 32.5601C250.328 32.5601 257.432 31.6425 263.914 30.9617C264.142 30.9617 264.36 30.8712 264.521 30.7103C264.682 30.5493 264.772 30.3309 264.772 30.1033C264.772 29.8756 264.682 29.6573 264.521 29.4963C264.36 29.3353 264.142 29.2449 263.914 29.2449C261.487 29.4817 250.091 30.1625 248.848 30.4289C248.608 30.509 248.403 30.6698 248.268 30.884C248.133 31.0982 248.076 31.3525 248.107 31.6037C248.139 31.8549 248.256 32.0874 248.44 32.2618C248.623 32.4362 248.862 32.5416 249.114 32.5601ZM272.32 30.6657C273.12 30.6657 288.837 29.3633 292.3 29.5409C293.455 29.5409 293.544 27.8537 292.3 27.7649C285.535 27.435 278.755 27.6528 272.024 28.4161C271.769 28.4999 271.55 28.6705 271.407 28.8983C271.264 29.1261 271.204 29.3968 271.24 29.6636C271.275 29.9305 271.402 30.1766 271.599 30.3596C271.797 30.5426 272.052 30.6508 272.32 30.6657ZM301.21 28.9785L313.968 28.6233C314.179 28.5848 314.37 28.4734 314.508 28.3084C314.646 28.1434 314.721 27.9354 314.721 27.7205C314.721 27.5056 314.646 27.2975 314.508 27.1325C314.37 26.9675 314.179 26.8561 313.968 26.8177L301.269 26.4625C300.967 26.5011 300.689 26.6467 300.485 26.8729C300.282 27.099 300.166 27.3907 300.158 27.695C300.151 27.9994 300.253 28.2962 300.446 28.5317C300.639 28.7672 300.91 28.9257 301.21 28.9785ZM324.12 29.3929C329.567 29.3929 349.221 30.3105 354.016 31.1393C355.2 31.3761 355.615 29.5409 354.431 29.3337C344.389 27.8067 334.248 27.0349 324.091 27.0249C323.777 27.0288 323.477 27.1573 323.258 27.3821C323.039 27.607 322.918 27.9097 322.922 28.2237C322.926 28.5377 323.054 28.8373 323.279 29.0566C323.504 29.2758 323.806 29.3968 324.12 29.3929ZM363.577 34.5137C371.414 36.8314 378.654 40.8203 384.8 46.2057C385.748 47.0641 387.08 45.6729 386.162 44.8145C379.953 38.8668 372.398 34.51 364.14 32.1161C363.841 32.0885 363.542 32.1698 363.299 32.3452C363.055 32.5205 362.883 32.778 362.815 33.0701C362.746 33.3622 362.786 33.6692 362.926 33.9346C363.066 34.1999 363.297 34.4056 363.577 34.5137ZM389.832 74.0001C389.587 74.06 389.372 74.2075 389.228 74.4148C389.084 74.6221 389.02 74.875 389.049 75.1258C389.078 75.3767 389.198 75.6083 389.386 75.7772C389.574 75.946 389.817 76.0403 390.069 76.0425C393.976 76.0425 398.564 71.4841 398.949 65.1793C399.334 58.8745 395.012 53.8129 390.868 49.5801C390.692 49.3995 390.451 49.2965 390.198 49.2938C389.946 49.291 389.702 49.3887 389.522 49.5653C389.341 49.7419 389.238 49.983 389.235 50.2356C389.233 50.4882 389.33 50.7315 389.507 50.9121C394.184 55.7665 396.463 60.2065 396.492 64.5281C396.571 66.618 395.962 68.6761 394.759 70.387C393.557 72.0978 391.826 73.367 389.832 74.0001ZM357.539 83.6201C360.499 83.6201 380.005 79.1505 383.232 78.3809C383.458 78.3064 383.647 78.1495 383.763 77.9416C383.878 77.7337 383.912 77.4899 383.856 77.2586C383.8 77.0274 383.659 76.8257 383.461 76.6936C383.263 76.5615 383.023 76.5087 382.788 76.5457C378.377 77.5521 362.808 80.2753 357.332 81.2225C357.044 81.2858 356.789 81.4516 356.615 81.6889C356.44 81.9262 356.358 82.2188 356.384 82.5122C356.409 82.8056 356.54 83.0798 356.753 83.2836C356.965 83.4874 357.245 83.607 357.539 83.6201ZM349.517 81.6665C343.212 82.3473 336.612 82.9393 330.248 83.8865C329.98 83.9666 329.748 84.1365 329.592 84.3676C329.435 84.5986 329.362 84.8767 329.387 85.1549C329.411 85.4331 329.531 85.6944 329.725 85.8947C329.92 86.095 330.178 86.2221 330.455 86.2545C332.26 86.2545 346.705 84.3601 349.606 84.0049C351.116 83.7977 351.027 81.4593 349.517 81.6665ZM304.88 89.2441C306.597 89.2441 318.437 87.3201 321.19 86.9353C321.421 86.8771 321.623 86.7366 321.757 86.5402C321.892 86.3439 321.95 86.1051 321.921 85.8688C321.892 85.6325 321.777 85.4149 321.599 85.257C321.421 85.0991 321.191 85.0117 320.953 85.0113C317.342 85.4257 308.196 86.2249 304.644 86.8465C304.354 86.9112 304.099 87.0795 303.925 87.3196C303.752 87.5598 303.672 87.8552 303.701 88.1501C303.73 88.445 303.866 88.7191 304.083 88.9206C304.301 89.1222 304.584 89.2372 304.88 89.2441ZM255.478 93.5065C261.812 93.5065 268.295 92.3817 274.57 91.7897C275.872 91.7897 275.872 89.6289 274.57 89.7473C268.265 90.2505 261.664 90.5169 255.3 91.4049C254.028 91.5529 254.176 93.5065 255.478 93.5065ZM224.28 96.2297C224.02 96.2913 223.791 96.4457 223.637 96.6639C223.483 96.8822 223.414 97.1492 223.443 97.4147C223.472 97.6802 223.598 97.926 223.795 98.1057C223.993 98.2854 224.249 98.3867 224.516 98.3905C226.529 98.3905 242.78 95.9929 245.236 95.6673C245.495 95.6064 245.722 95.451 245.872 95.2316C246.022 95.0122 246.085 94.7446 246.048 94.4814C246.01 94.2182 245.876 93.9783 245.672 93.8089C245.467 93.6395 245.206 93.5527 244.94 93.5657C241.063 94.0393 227.565 95.5489 224.28 96.2297ZM179.199 104.695C190.686 102.285 202.297 100.506 213.979 99.3673C215.518 99.3673 215.459 96.8513 213.979 96.9993C202.151 97.7039 190.416 99.5276 178.932 102.446C178.678 102.528 178.46 102.696 178.315 102.921C178.171 103.146 178.109 103.414 178.141 103.68C178.172 103.946 178.295 104.192 178.488 104.377C178.681 104.562 178.932 104.675 179.199 104.695ZM139.594 119.969C147.487 115.24 156.109 111.849 165.109 109.934C166.678 109.609 166.056 107.241 164.517 107.566C155.249 109.407 146.367 112.831 138.262 117.69C138.008 117.888 137.835 118.172 137.774 118.489C137.714 118.805 137.77 119.133 137.932 119.411C138.095 119.689 138.353 119.899 138.659 120.002C138.964 120.104 139.296 120.093 139.594 119.969ZM114.582 143.767C117.849 134.968 124.146 127.622 132.342 123.047C133.437 122.455 132.52 120.827 131.395 121.39C122.471 125.826 115.616 133.551 112.273 142.938C111.711 144.596 114.02 145.247 114.582 143.767ZM121.035 179.169C120.147 178.162 118.726 179.554 119.555 180.531C121.627 182.928 132.549 191.334 134.769 191.334C135.002 191.333 135.228 191.254 135.412 191.112C135.597 190.969 135.729 190.77 135.789 190.545C135.85 190.32 135.835 190.082 135.747 189.866C135.659 189.651 135.503 189.47 135.302 189.351C130.281 186.345 125.51 182.94 121.035 179.169ZM162.297 198.143C155.616 197.482 149.076 195.795 142.909 193.14C141.548 192.548 140.423 194.561 141.814 195.212C148.223 198.248 155.137 200.074 162.208 200.599C163.836 200.688 163.836 198.32 162.297 198.143ZM168.72 202.198C172.154 202.701 186.155 204.98 189.707 205.158C190.001 205.166 190.288 205.065 190.512 204.874C190.735 204.683 190.88 204.415 190.917 204.123C190.954 203.831 190.881 203.536 190.712 203.295C190.543 203.054 190.29 202.884 190.003 202.819C186.599 202.109 172.716 200.451 169.283 199.859C167.892 199.83 167.329 201.961 168.72 202.198ZM214.334 205.809C208.592 206.319 202.805 205.838 197.225 204.388C196.993 204.362 196.759 204.419 196.566 204.551C196.373 204.682 196.233 204.879 196.172 205.104C196.111 205.33 196.133 205.57 196.234 205.78C196.335 205.991 196.508 206.159 196.722 206.253C202.483 207.931 208.501 208.543 214.482 208.058C215.814 207.91 215.784 205.72 214.334 205.809ZM411.056 191.275C417.225 190.599 423.306 189.28 429.2 187.339C430.444 186.924 429.911 184.97 428.638 185.355C422.888 187.027 416.99 188.137 411.026 188.671C409.309 188.848 409.339 191.423 411.056 191.275ZM383.587 193.525C383.348 193.601 383.143 193.757 383.005 193.966C382.868 194.175 382.806 194.425 382.83 194.674C382.854 194.923 382.963 195.157 383.139 195.335C383.314 195.514 383.545 195.627 383.794 195.656C385.955 195.656 400.725 193.051 403.241 192.696C404.692 192.43 404.129 190.328 402.738 190.535C395.101 191.631 389.418 192.4 383.587 193.525ZM375.92 194.443C368.55 195.745 361.12 196.515 354.076 197.195C352.536 197.373 352.596 199.741 354.076 199.623C361.532 199.022 368.952 198.034 376.305 196.663C376.451 196.637 376.59 196.584 376.715 196.504C376.84 196.425 376.949 196.322 377.034 196.201C377.119 196.08 377.18 195.944 377.212 195.8C377.244 195.655 377.248 195.506 377.223 195.36C377.198 195.214 377.144 195.075 377.065 194.95C376.986 194.825 376.883 194.717 376.762 194.632C376.641 194.546 376.504 194.486 376.36 194.453C376.216 194.421 376.066 194.417 375.92 194.443ZM159.663 299.937C160.965 299.937 161.024 298.102 159.663 297.924C153.658 297.03 147.553 297.03 141.548 297.924C141.263 297.987 141.013 298.155 140.847 298.394C140.681 298.633 140.612 298.926 140.653 299.215C140.694 299.503 140.843 299.765 141.069 299.948C141.295 300.132 141.583 300.223 141.873 300.203C147.783 299.587 153.737 299.497 159.663 299.937ZM422.481 298.368C422.236 298.445 422.024 298.604 421.881 298.819C421.739 299.034 421.674 299.291 421.699 299.547C421.723 299.804 421.834 300.044 422.015 300.228C422.195 300.412 422.433 300.529 422.688 300.559C422.984 300.559 438.584 300.115 442.343 300.559C443.349 300.707 443.675 299.167 442.668 299.019C435.97 298.237 429.217 298.019 422.481 298.368ZM414.4 300.706C414.636 300.706 414.862 300.613 415.028 300.446C415.195 300.28 415.288 300.054 415.288 299.819C415.288 299.583 415.195 299.357 415.028 299.191C414.862 299.024 414.636 298.93 414.4 298.93C410.038 298.647 405.657 298.956 401.377 299.848C400.104 300.115 400.459 301.979 401.672 301.979C405.847 301.038 410.122 300.611 414.4 300.706ZM481.77 337.44C481.533 338.624 483.25 339.364 483.753 338.21C486.299 332.467 487.572 323.676 484.375 317.49C483.753 316.306 481.977 317.312 482.569 318.496C486.151 325.6 482.717 332.852 481.77 337.44ZM124.32 426.24C120.156 429.7 116.673 433.906 114.049 438.643C113.991 438.74 113.952 438.847 113.936 438.96C113.919 439.072 113.925 439.186 113.952 439.296C114.008 439.518 114.149 439.709 114.345 439.827C114.542 439.944 114.777 439.979 114.999 439.924C115.221 439.868 115.411 439.727 115.529 439.531C118.237 435.067 121.703 431.111 125.771 427.839C126.955 426.98 125.504 425.441 124.32 426.24ZM144.093 408.865C140.037 411.899 136.181 415.192 132.549 418.722C132.373 418.902 132.275 419.146 132.278 419.398C132.281 419.651 132.383 419.892 132.564 420.069C132.745 420.245 132.988 420.343 133.241 420.34C133.493 420.337 133.734 420.234 133.911 420.054C135.568 418.307 144.478 411.351 145.366 410.611C146.254 409.871 145.188 408.48 144.093 408.865ZM152.973 403.478C153.595 403.478 151.76 404.07 162.8 396.788C163.031 396.629 163.193 396.389 163.257 396.117C163.32 395.844 163.279 395.557 163.142 395.313C163.005 395.069 162.782 394.884 162.516 394.796C162.25 394.707 161.961 394.721 161.705 394.835C158.443 397.058 155.329 399.49 152.381 402.116C152.282 402.234 152.217 402.378 152.195 402.53C152.173 402.683 152.194 402.839 152.255 402.98C152.317 403.122 152.417 403.244 152.543 403.331C152.67 403.419 152.819 403.47 152.973 403.478Z" fill="black"/>
<path d="M168.099 391.756C168.868 392.082 168.365 391.756 177.689 385.836C177.089 393.269 177.198 400.742 178.015 408.154C173.396 405.645 168.964 402.805 164.754 399.659C163.955 399.038 162.889 400.162 163.718 400.843C168.318 404.784 173.272 408.292 178.518 411.322C182.397 440.788 197.431 467.644 220.52 486.358C209.923 488.844 203.234 490.235 200.629 490.502C199.504 490.502 199.504 492.337 200.629 492.337C203.204 492.337 219.603 489.14 223.066 488.43C265.571 522.262 321.456 518.947 362.186 487.778C370.34 489.934 378.626 491.556 386.991 492.633C387.25 492.613 387.495 492.504 387.683 492.325C387.871 492.145 387.992 491.905 388.023 491.647C388.054 491.388 387.995 491.127 387.856 490.908C387.716 490.688 387.504 490.523 387.257 490.442C383.587 489.821 373.286 487.867 364.406 486.032C386.675 468.395 401.516 443.044 405.994 414.992C407.119 414.282 408.214 413.512 409.279 412.713C410.345 411.914 409.279 410.049 408.125 410.789L406.438 411.825C410.049 380.39 398.979 349.073 379.413 325.541C384.978 319.414 388.855 312.162 386.576 304.11C389.381 303.255 392.239 302.583 395.131 302.098C396.433 301.92 395.959 299.996 394.716 300.174C391.718 300.557 388.751 301.15 385.836 301.95C383.674 296.589 379.961 291.996 375.173 288.758C370.385 285.521 364.739 283.786 358.959 283.775C363.688 278.804 367.157 272.773 369.078 266.187C370.999 259.601 371.315 252.65 370 245.917C364.524 220.757 344.959 196.84 320.331 183.076C320.935 179.745 320.752 176.319 319.799 173.071C319.147 170.111 317.194 169.105 314.915 167.625C313.731 166.855 312.606 166.145 311.363 165.434C314.629 160.352 316.337 154.426 316.276 148.385C322.936 147.734 323.173 138.025 315.862 136.545C323.291 101.676 258.793 95.756 262.582 137.67C261.268 138.045 260.091 138.792 259.193 139.821C258.294 140.851 257.714 142.119 257.52 143.471C257.345 144.398 257.401 145.355 257.683 146.255C257.965 147.155 258.465 147.972 259.138 148.634C259.811 149.295 260.637 149.781 261.542 150.047C262.447 150.313 263.404 150.352 264.328 150.161C264.056 153.994 264.856 157.827 266.637 161.231C265.156 161.572 263.777 162.259 262.614 163.237C261.451 164.215 260.537 165.455 259.947 166.855C258.635 170.591 258.379 174.616 259.207 178.488C235.675 189.223 216.86 208.165 206.283 231.768C197.906 250.86 201.991 264.831 216.791 279.394C210.163 277.257 202.999 277.476 196.515 280.016C192.448 281.765 188.811 284.379 185.856 287.676C182.901 290.973 180.7 294.874 179.406 299.108C176.558 298.653 173.667 298.533 170.792 298.753C170.596 298.79 170.418 298.894 170.29 299.048C170.162 299.202 170.093 299.396 170.093 299.596C170.093 299.796 170.162 299.99 170.29 300.144C170.418 300.298 170.596 300.403 170.792 300.44C173.519 300.324 176.247 300.644 178.873 301.387C176.831 313.849 187.398 324.386 197.669 331.786C186.646 346.763 179.857 364.431 178.015 382.935C174.541 385.052 171.191 387.364 167.98 389.862C167.811 389.962 167.673 390.106 167.581 390.28C167.489 390.453 167.447 390.649 167.459 390.845C167.472 391.041 167.538 391.23 167.651 391.391C167.763 391.551 167.918 391.678 168.099 391.756ZM298.96 173.456L300.203 173.071C300.884 173.782 302.719 175.38 303.844 176.327C295.053 180.945 284.16 180.56 272.794 175.025C274.067 173.87 276.139 171.769 276.908 170.881C278.943 171.66 281.018 172.332 283.124 172.894C283.988 174.175 285.143 175.233 286.494 175.983C287.845 176.732 289.355 177.151 290.899 177.206C292.443 177.261 293.979 176.95 295.379 176.298C296.78 175.646 298.007 174.672 298.96 173.456ZM275.28 170.052C274.274 171.177 272.024 173.574 271.284 174.196C270.455 173.742 269.627 173.268 268.798 172.775C268.637 172.677 268.444 172.647 268.26 172.691C268.077 172.736 267.919 172.851 267.821 173.012C267.723 173.173 267.693 173.366 267.737 173.549C267.781 173.733 267.897 173.891 268.058 173.989C275.251 178.606 282.266 182.099 290.761 182.099C294.203 182.262 297.637 181.653 300.813 180.316C303.988 178.98 306.824 176.949 309.113 174.374C309.235 174.248 309.301 174.079 309.299 173.904C309.296 173.729 309.224 173.563 309.098 173.441C308.973 173.319 308.804 173.253 308.629 173.255C308.454 173.258 308.287 173.33 308.166 173.456C307.364 174.117 306.524 174.73 305.65 175.291C304.851 174.61 303.015 173.13 302.127 172.331C305.139 171.194 307.874 169.428 310.149 167.151C313.109 168.407 315.764 170.284 317.934 172.657C319.021 175.881 319.196 179.344 318.437 182.662C315.714 191.068 293.691 199.386 271.077 187.575C263.115 183.579 259.77 180.294 261.191 170.348C261.296 168.59 261.972 166.914 263.115 165.573C264.257 164.233 265.806 163.301 267.525 162.918C269.475 165.905 272.141 168.358 275.28 170.052ZM299.375 195.36C304.199 194.768 315.655 192.578 319.71 185.089C343.242 198.113 367.78 227.239 368.343 253.79C368.545 259.626 367.379 265.428 364.938 270.733C362.496 276.037 358.847 280.696 354.283 284.338C350.096 285.108 346.084 286.632 342.443 288.837C345.047 248.61 345.136 251.038 344.84 250.742C344.544 250.446 340.045 250.416 332.704 250.238C333.622 249.084 336.079 245.828 336.641 245.177C336.778 245.032 336.852 244.838 336.847 244.638C336.841 244.438 336.757 244.249 336.611 244.111C336.466 243.974 336.272 243.9 336.072 243.905C335.873 243.911 335.683 243.996 335.546 244.141C333.677 246.216 331.701 248.192 329.626 250.061H329.004C329.759 241.083 329.957 232.068 329.596 223.066C329.596 222.355 328.353 222.355 328.412 223.066C328.708 227.298 326.725 246.272 326.488 249.913C304.436 249.469 267.673 249.084 245.473 248.877C242.752 239.673 241.602 230.077 242.069 220.49C242.069 219.484 240.648 219.484 240.559 220.49C239.602 230.026 240.395 239.656 242.898 248.906H242.276C239.31 245.941 236.495 242.829 233.84 239.582C233.732 239.434 233.574 239.331 233.394 239.294C233.215 239.256 233.028 239.286 232.87 239.378C232.711 239.47 232.593 239.617 232.537 239.792C232.481 239.966 232.492 240.155 232.567 240.322C232.893 240.944 236.445 246.242 238.783 249.025H227.299C226.44 249.025 226.707 249.025 226.647 249.706C226.351 253.05 227.417 271.521 228.246 284.663C226.461 283.55 224.602 282.561 222.681 281.703C207.437 266.726 199.327 255.063 207.615 235.054C217.509 210.954 236.151 191.488 259.799 180.56C263.115 187.634 279.957 197.669 299.375 195.36ZM228.542 251.126C231.916 251.126 335.753 252.044 343.005 252.695C341.614 264.358 339.039 298.812 338.151 310.386H331.668C327.998 313.553 300.766 336.167 298.812 337.825C298.131 338.358 299.375 338.802 302.305 341.436C304.148 342.789 305.693 344.507 306.844 346.483C307.995 348.458 308.727 350.65 308.995 352.921C309.002 353.025 309.049 353.123 309.126 353.195C309.203 353.266 309.304 353.306 309.409 353.306C319.947 353.75 328.856 363.133 321.545 368.934C314.826 374.262 304.436 368.934 299.286 364.021C303.933 357.953 306.656 352.654 301.447 347.178C300.825 346.527 294.135 341.081 285.64 334.154C253.465 307.899 256.04 309.379 255.626 309.379C253.968 309.379 236.386 308.166 233.219 307.988C230.88 289.044 229.163 261.368 228.542 251.126ZM259.503 367.869C255.152 368.194 247.841 368.757 244.703 364.346C242.661 361.386 245.71 357.923 248.995 356.976C256.188 359.581 267.495 363.222 271.166 364.376C267.514 366.217 263.566 367.399 259.503 367.869ZM244.111 367.277C247.071 370.237 252.103 370.592 256.129 370.533C262.697 370.5 269.14 368.734 274.807 365.412C281.289 367.306 287.712 368.934 294.402 370.355C294.482 370.383 294.569 370.383 294.649 370.356C294.729 370.33 294.798 370.277 294.846 370.207C295.971 368.816 297.066 367.247 298.072 365.915C304.88 372.25 316.247 376.423 323.232 371.036C328.383 367.04 327.583 360.202 322.433 355.97C346.942 348.777 366.448 338.446 377.4 327.583C387.622 339.303 395.187 353.096 399.575 368.016C403.964 382.935 405.073 398.627 402.827 414.015C396.574 418.106 390.101 421.851 383.439 425.234C383.278 425.316 383.15 425.451 383.076 425.616C383.001 425.781 382.985 425.966 383.03 426.142C383.075 426.317 383.177 426.472 383.321 426.581C383.466 426.69 383.643 426.747 383.823 426.743C384.208 426.743 396.048 421.03 402.294 417.33C397.182 444.078 382.827 468.177 361.742 485.41C356.976 484.404 352.862 483.457 350.908 482.865C349.843 482.51 349.369 484.108 350.405 484.493C352.211 485.144 355.585 486.062 359.611 487.098C340.518 501.646 317.198 509.565 293.194 509.65C269.19 509.736 245.814 501.983 226.618 487.571C230.166 486.83 233.657 485.841 237.067 484.611C238.369 484.049 237.57 482.125 236.238 482.421L223.924 485.381C201.365 467.273 186.247 441.506 181.448 412.979L182.04 413.246C183.402 413.838 184.467 411.973 183.195 411.233L181.004 409.96C177.09 382.944 183.679 355.454 199.415 333.148C214.156 342.579 229.952 350.248 246.479 355.999C241.803 358.367 240.234 363.458 244.111 367.277ZM314.737 147.615C314.115 153.535 313.227 159.455 309.557 164.014C307.544 166.53 303.252 170.259 299.73 170.348C297.391 170.348 296.563 168.986 295.053 167.388C293.07 165.079 292.093 163.866 291.027 164.043C288.659 164.339 289.074 168.809 285.285 171.029C284.131 171.68 280.105 170.526 277.027 169.046C273.418 167.256 270.443 164.405 268.502 160.876C266.56 157.347 265.744 153.308 266.163 149.302C266.163 148.592 265.127 148.148 264.713 148.355C264.07 148.578 263.38 148.632 262.71 148.513C262.04 148.395 261.411 148.107 260.883 147.677C260.355 147.247 259.946 146.689 259.694 146.057C259.442 145.424 259.356 144.738 259.444 144.063C260.569 138.143 267.199 139.623 268.946 143.057C269.004 143.143 269.091 143.207 269.191 143.236C269.292 143.264 269.399 143.257 269.494 143.215C269.59 143.172 269.667 143.098 269.713 143.004C269.759 142.91 269.77 142.803 269.745 142.702C268.552 139.59 268.404 136.174 269.322 132.971C270.241 129.767 272.176 126.949 274.836 124.942C279.064 127.877 284.089 129.451 289.237 129.451C294.384 129.451 299.409 127.877 303.637 124.942C309.35 129.382 309.557 138.617 309.143 141.843C309.138 141.921 309.152 141.999 309.182 142.071C309.213 142.143 309.26 142.207 309.32 142.258C309.823 142.642 310.652 141.636 311.067 141.162C311.599 140.336 312.363 139.685 313.263 139.29C314.163 138.895 315.16 138.774 316.128 138.942C317.096 139.084 317.978 139.575 318.607 140.323C319.237 141.071 319.571 142.023 319.545 143.001C319.52 143.978 319.137 144.912 318.469 145.626C317.801 146.34 316.894 146.785 315.921 146.875C315.714 146.698 314.796 146.994 314.737 147.615Z" fill="black"/>
<path d="M272.321 472.268C272.617 472.979 272.321 472.653 272.321 472.268C263.959 475.651 255.311 478.276 246.48 480.112C245.414 480.319 245.769 481.888 246.835 481.77C255.978 480.741 264.889 478.211 273.209 474.281C274.422 473.6 273.623 471.795 272.321 472.268ZM313.761 459.688C314.471 459.688 338.447 450.275 340.785 448.766C341.94 447.996 341.141 446.013 339.779 446.516C337.381 447.404 318.319 456.403 313.553 458.09C313.379 458.156 313.233 458.279 313.137 458.439C313.042 458.599 313.003 458.786 313.027 458.971C313.051 459.155 313.136 459.326 313.269 459.457C313.402 459.587 313.576 459.668 313.761 459.688ZM350.405 444C351.175 444 371.125 434.913 372.99 433.492C373.908 432.782 373.286 431.095 372.073 431.568C370.267 432.249 353.898 440.448 350.139 442.017C349.929 442.105 349.753 442.26 349.64 442.457C349.527 442.655 349.482 442.885 349.512 443.111C349.542 443.337 349.646 443.546 349.808 443.707C349.969 443.868 350.179 443.971 350.405 444ZM408.481 384.504C410.138 385.57 416.295 390.424 417.953 391.49C418.206 391.636 418.504 391.687 418.792 391.631C419.079 391.575 419.337 391.417 419.517 391.187C419.697 390.956 419.788 390.668 419.773 390.375C419.757 390.083 419.636 389.806 419.433 389.595C417.864 388.263 411.085 384.03 409.398 383.024C409.202 382.902 408.965 382.864 408.741 382.916C408.516 382.969 408.321 383.109 408.199 383.305C408.078 383.502 408.039 383.738 408.092 383.963C408.144 384.188 408.284 384.382 408.481 384.504ZM445.629 409.072C444.711 408.332 443.468 409.664 444.415 410.434C446.517 412.18 454.864 419.58 457.173 421.149C457.418 421.27 457.697 421.303 457.963 421.241C458.229 421.18 458.466 421.028 458.633 420.812C458.801 420.596 458.888 420.329 458.881 420.056C458.874 419.783 458.772 419.521 458.593 419.314C456.699 417.36 448.085 411.026 445.629 409.072ZM464.721 426.063C464.544 425.89 464.306 425.794 464.059 425.797C463.812 425.8 463.576 425.901 463.403 426.077C463.231 426.254 463.135 426.492 463.138 426.739C463.141 426.986 463.242 427.222 463.418 427.395C467.135 431.155 470.476 435.269 473.393 439.679C474.341 441.011 476.501 439.679 475.584 438.317C472.493 433.791 468.843 429.674 464.721 426.063ZM423.281 494.32C419.314 494.32 402.235 493.195 398.032 492.337C397.839 492.29 397.636 492.321 397.467 492.424C397.298 492.526 397.176 492.692 397.129 492.885C397.082 493.077 397.113 493.28 397.216 493.449C397.319 493.619 397.484 493.74 397.677 493.787C406.131 495.377 414.687 496.366 423.281 496.747C423.602 496.747 423.911 496.619 424.139 496.392C424.366 496.164 424.494 495.856 424.494 495.534C424.494 495.212 424.366 494.903 424.139 494.676C423.911 494.448 423.602 494.32 423.281 494.32ZM317.49 473.038C316.454 472.535 315.596 474.074 316.661 474.607C324.118 478.373 332.102 480.987 340.341 482.362C341.94 482.658 342.561 480.201 340.933 479.935C332.836 478.74 324.945 476.418 317.49 473.038ZM282.799 470.995C286.499 470.196 294.047 468.035 295.231 467.858C296.356 468.302 303.578 471.025 307.426 471.943C307.714 472.007 308.016 471.958 308.27 471.806C308.523 471.654 308.709 471.411 308.788 471.127C308.868 470.842 308.835 470.538 308.698 470.277C308.56 470.016 308.327 469.817 308.048 469.723C305.088 468.657 302.128 467.769 298.842 466.763C301.229 465.969 303.546 464.979 305.769 463.803C305.93 463.63 306.038 463.413 306.078 463.18C306.118 462.947 306.089 462.707 305.995 462.49C305.901 462.273 305.745 462.088 305.547 461.958C305.349 461.829 305.117 461.76 304.881 461.76C301.565 462.885 298.309 464.306 295.083 465.549C291.413 464.247 288.038 462.915 284.812 461.494C283.746 461.02 282.888 462.589 283.983 463.092C286.677 464.365 289.37 465.579 292.034 466.674C288.888 467.766 285.686 468.695 282.444 469.456C282.308 469.555 282.204 469.692 282.145 469.85C282.086 470.008 282.075 470.179 282.113 470.343C282.15 470.507 282.236 470.656 282.358 470.772C282.48 470.888 282.633 470.966 282.799 470.995ZM150.309 388.471C147.349 386.162 136.249 376.631 133.793 374.026C132.993 373.167 131.661 374.44 132.461 375.299C137.292 380.981 142.81 386.042 148.889 390.365C150.073 391.164 151.434 389.359 150.309 388.471ZM115.145 528.538C113.297 512.197 109.969 496.058 105.199 480.319C107.899 484.403 112.063 487.295 116.832 488.4C117.036 488.486 117.266 488.488 117.471 488.405C117.677 488.322 117.841 488.16 117.927 487.956C118.013 487.752 118.015 487.522 117.932 487.317C117.849 487.111 117.687 486.947 117.483 486.861C113.694 484.582 107.863 482.273 106.057 476.738C107.045 474.935 107.289 472.817 106.735 470.837C106.182 468.856 104.877 467.171 103.097 466.141C104.162 459.854 106.412 453.827 109.728 448.381C110.113 447.641 109.106 446.871 108.544 447.523C104.32 452.789 101.736 459.181 101.114 465.904C100.344 465.96 99.5855 466.129 98.8646 466.407C91.0223 446.137 79.8803 427.304 65.8902 410.671C66.4288 409.752 66.638 408.678 66.4834 407.625C66.3287 406.572 65.8195 405.603 65.0397 404.878C64.2599 404.154 63.2563 403.717 62.1946 403.64C61.133 403.563 60.0768 403.85 59.2006 404.455C58.2008 405.135 57.474 406.147 57.1489 407.312C56.8239 408.477 56.9215 409.719 57.4246 410.818C57.7598 411.405 58.2104 411.918 58.7491 412.325C59.2879 412.733 59.9036 413.027 60.5591 413.19C61.2147 413.353 61.8965 413.382 62.5635 413.275C63.2304 413.167 63.8687 412.926 64.4398 412.565C78.1565 429.011 89.1492 447.548 96.9998 467.473C92.175 471.735 96.3782 479.727 102.446 479.076C107.449 495.365 110.937 512.081 112.865 529.011C111.977 529.482 111.289 530.258 110.927 531.195C110.565 532.133 110.553 533.169 110.894 534.115C111.235 535.06 111.906 535.851 112.783 536.341C113.661 536.832 114.685 536.99 115.67 536.785C116.654 536.581 117.531 536.028 118.14 535.228C118.749 534.429 119.049 533.437 118.986 532.434C118.922 531.431 118.498 530.484 117.792 529.769C117.087 529.053 116.147 528.616 115.145 528.538ZM64.2918 408.48C64.3957 408.87 64.4086 409.279 64.3294 409.675C64.2502 410.071 64.0811 410.443 63.8351 410.764C63.589 411.084 63.2727 411.343 62.9105 411.521C62.5483 411.7 62.15 411.793 61.7462 411.793C61.3424 411.793 60.9441 411.7 60.5819 411.521C60.2197 411.343 59.9033 411.084 59.6573 410.764C59.4113 410.443 59.2421 410.071 59.163 409.675C59.0838 409.279 59.0966 408.87 59.2006 408.48C59.0966 408.09 59.0838 407.681 59.163 407.285C59.2421 406.889 59.4113 406.517 59.6573 406.197C59.9033 405.877 60.2197 405.617 60.5819 405.439C60.9441 405.26 61.3424 405.168 61.7462 405.168C62.15 405.168 62.5483 405.26 62.9105 405.439C63.2727 405.617 63.589 405.877 63.8351 406.197C64.0811 406.517 64.2502 406.889 64.3294 407.285C64.4086 407.681 64.3957 408.09 64.2918 408.48ZM117.572 532.534C117.572 535.494 112.688 535.494 112.688 532.534C112.688 529.574 117.453 529.84 117.453 532.8L117.572 532.534ZM104.607 474.518C103.009 479.461 97.059 475.998 97.1478 471.972C97.1478 468.42 102.091 466.052 103.956 469.456C104.434 470.222 104.73 471.087 104.822 471.984C104.915 472.882 104.801 473.789 104.489 474.636L104.607 474.518ZM535.109 355.467C535.094 354.611 534.842 353.777 534.381 353.057C533.92 352.337 533.268 351.759 532.498 351.387C531.727 351.016 530.869 350.866 530.018 350.954C529.168 351.042 528.358 351.364 527.68 351.885C511.023 342.132 496.698 328.858 485.707 312.991C486.51 312.068 487.063 310.955 487.311 309.757C487.56 308.56 487.497 307.319 487.128 306.153C486.845 305.248 486.332 304.432 485.64 303.785C484.947 303.138 484.098 302.682 483.176 302.461C482.255 302.24 481.291 302.263 480.381 302.526C479.47 302.789 478.643 303.284 477.981 303.963C463.736 284.693 453.555 262.729 448.056 239.405C448.611 238.776 448.951 237.985 449.026 237.149C449.1 236.313 448.906 235.475 448.47 234.758C448.143 234.017 447.584 233.402 446.876 233.007C446.169 232.612 445.353 232.458 444.55 232.569C443.748 232.679 443.003 233.048 442.428 233.619C441.854 234.19 441.481 234.933 441.366 235.735C441.178 236.408 441.176 237.12 441.36 237.795C441.544 238.47 441.907 239.083 442.41 239.568C442.914 240.054 443.539 240.394 444.221 240.553C444.902 240.712 445.613 240.683 446.28 240.471C451.733 264.064 462.08 286.249 476.649 305.591C476.338 306.094 476.108 306.643 475.969 307.219C472.209 305.413 453.532 299.493 451.578 300.026C450.749 300.263 451.134 301.269 451.578 301.387C459.751 303.646 467.778 306.404 475.613 309.646C475.779 310.552 476.149 311.409 476.695 312.151C477.241 312.893 477.948 313.501 478.764 313.929C479.58 314.357 480.483 314.593 481.403 314.62C482.324 314.648 483.239 314.465 484.079 314.086C497.577 333.267 511.4 346.202 526.318 353.631C525.999 354.35 525.863 355.136 525.924 355.92C525.984 356.704 526.239 357.46 526.665 358.121C527.091 358.782 527.674 359.326 528.363 359.705C529.052 360.084 529.824 360.285 530.61 360.291C531.237 360.321 531.864 360.215 532.445 359.978C533.027 359.742 533.55 359.381 533.978 358.922C534.407 358.463 534.73 357.916 534.925 357.319C535.12 356.722 535.183 356.09 535.109 355.467ZM528.538 356.947C528.284 356.571 528.132 356.136 528.098 355.684C528.063 355.232 528.147 354.779 528.341 354.369C528.536 353.96 528.834 353.608 529.206 353.349C529.578 353.089 530.011 352.932 530.462 352.891C531.172 352.914 531.845 353.21 532.341 353.718C532.838 354.225 533.119 354.905 533.126 355.615C533.127 356.154 532.952 356.678 532.629 357.11C532.306 357.541 531.851 357.855 531.333 358.006C530.815 358.156 530.263 358.134 529.759 357.943C529.255 357.752 528.826 357.402 528.538 356.947ZM483.191 312.369C482.276 312.664 481.289 312.643 480.387 312.311C479.486 311.978 478.722 311.352 478.218 310.534C477.941 309.876 477.827 309.16 477.886 308.449C477.944 307.737 478.173 307.05 478.554 306.446C478.934 305.841 479.455 305.338 480.072 304.978C480.688 304.618 481.383 304.411 482.096 304.377C485.885 304.377 486.536 310.978 483.191 312.369ZM447.109 236.8C447.143 237.079 447.117 237.362 447.034 237.63C446.951 237.898 446.812 238.146 446.626 238.356C446.439 238.566 446.211 238.735 445.955 238.85C445.699 238.966 445.421 239.025 445.14 239.025C444.859 239.025 444.582 238.966 444.326 238.85C444.07 238.735 443.841 238.566 443.655 238.356C443.469 238.146 443.329 237.898 443.246 237.63C443.163 237.362 443.138 237.079 443.172 236.8C443.138 236.521 443.163 236.239 443.246 235.97C443.329 235.702 443.469 235.455 443.655 235.244C443.841 235.034 444.07 234.865 444.326 234.75C444.582 234.635 444.859 234.575 445.14 234.575C445.421 234.575 445.699 234.635 445.955 234.75C446.211 234.865 446.439 235.034 446.626 235.244C446.812 235.455 446.951 235.702 447.034 235.97C447.117 236.239 447.143 236.521 447.109 236.8ZM494.321 477.655C494.402 477.448 494.408 477.219 494.338 477.008C494.268 476.797 494.125 476.617 493.936 476.501C492.456 475.583 490.029 477.123 489.614 478.869C490.621 478.958 493.699 478.839 494.321 477.655Z" fill="black"/>
<path d="M487.275 458.09C485.351 454.018 483.187 450.064 480.793 446.25C480.661 446.056 480.459 445.919 480.23 445.869C480 445.819 479.761 445.859 479.559 445.98C479.358 446.101 479.212 446.295 479.149 446.522C479.087 446.748 479.114 446.99 479.224 447.197C481.22 450.704 482.951 454.355 484.404 458.119C481.101 458.479 477.961 459.741 475.329 461.767C472.696 463.794 470.672 466.506 469.48 469.607C468.287 472.707 467.972 476.077 468.568 479.345C469.164 482.613 470.649 485.654 472.86 488.134C462.617 492.12 451.785 494.38 440.803 494.823C440.607 494.86 440.429 494.965 440.301 495.119C440.173 495.273 440.104 495.467 440.104 495.667C440.104 495.867 440.173 496.061 440.301 496.215C440.429 496.369 440.607 496.474 440.803 496.511C452.512 496.759 464.148 494.603 474.991 490.176C477.209 491.936 479.811 493.148 482.585 493.715C485.359 494.282 488.227 494.188 490.958 493.44C493.689 492.692 496.205 491.311 498.302 489.409C500.4 487.508 502.02 485.139 503.032 482.494C504.043 479.85 504.417 477.004 504.124 474.188C503.831 471.372 502.879 468.664 501.344 466.285C499.81 463.905 497.737 461.921 495.292 460.492C492.848 459.063 490.101 458.23 487.275 458.06V458.09ZM483.516 485.44C483.22 483.457 483.102 481.444 482.746 479.52H478.395C478.129 481.267 478.129 483.013 477.862 484.759C477.847 484.884 477.807 485.004 477.745 485.113C477.683 485.222 477.6 485.318 477.501 485.395C477.402 485.472 477.289 485.528 477.168 485.562C477.047 485.595 476.921 485.604 476.797 485.588C476.672 485.573 476.552 485.533 476.443 485.471C476.334 485.409 476.239 485.326 476.162 485.227C476.085 485.128 476.028 485.015 475.995 484.894C475.962 484.773 475.952 484.647 475.968 484.523C475.968 482.569 477.596 470.137 477.922 468.391C478.336 465.934 479.638 465.727 480.378 465.815C481.918 465.993 482.332 467.591 482.658 468.775C483.516 471.943 485.618 481.592 486.15 484.789C486.387 486.387 483.782 487.039 483.516 485.44ZM496.806 483.161C492.041 486.476 486.032 482.51 487.926 477.922C489.14 474.962 493.846 472.949 495.83 476.028C496.068 476.525 496.185 477.072 496.172 477.624C496.158 478.175 496.014 478.716 495.751 479.201C495.488 479.686 495.114 480.102 494.66 480.415C494.205 480.728 493.683 480.928 493.136 481C492.154 481.13 491.158 481.13 490.176 481C490.551 481.414 490.991 481.764 491.478 482.036C494.438 483.279 496.422 481.059 497.014 482.303C497.06 482.428 497.065 482.564 497.027 482.692C496.99 482.82 496.912 482.932 496.806 483.013V483.161Z" fill="black"/>
<path d="M479.935 468.953C479.491 471.202 478.988 475.228 478.751 477.093H482.273C481.948 475.583 481.089 471.35 480.497 469.042C480.408 468.657 479.994 468.568 479.935 468.953ZM223.48 424.642C221.704 423.576 217.797 423.458 217.56 425.796C217.383 427.098 217.56 432.308 217.56 433.699C218.911 433.66 220.239 433.343 221.461 432.767C222.683 432.192 223.774 431.37 224.664 430.354C224.997 429.914 225.233 429.407 225.354 428.868C225.475 428.329 225.48 427.771 225.368 427.23C225.256 426.689 225.029 426.178 224.704 425.732C224.378 425.285 223.961 424.914 223.48 424.642Z" fill="black"/>
<path d="M274.067 456.817C265.885 453.82 257.88 450.361 250.091 446.457C251.646 443.279 252.559 439.827 252.78 436.296C253 432.765 252.523 429.225 251.376 425.879C250.228 422.532 248.433 419.445 246.092 416.792C243.751 414.139 240.911 411.974 237.733 410.419C234.555 408.864 231.102 407.951 227.571 407.73C224.041 407.51 220.501 407.987 217.154 409.134C213.808 410.282 210.72 412.077 208.068 414.418C205.415 416.759 203.25 419.599 201.695 422.777C198.113 420.871 194.636 418.776 191.276 416.502C190.358 415.91 189.5 417.301 190.358 417.923C194.354 420.883 197.699 422.955 200.807 424.849C190.18 455.87 231.472 475.732 249.055 448.263C256.771 452.644 265.032 455.988 273.623 458.208C273.796 458.234 273.973 458.197 274.122 458.104C274.271 458.011 274.382 457.868 274.435 457.701C274.489 457.534 274.481 457.353 274.413 457.192C274.346 457.03 274.223 456.897 274.067 456.817ZM226.707 433.137C224.309 435.435 221.146 436.763 217.827 436.867V445.155C217.827 445.492 217.693 445.816 217.454 446.055C217.215 446.293 216.892 446.428 216.554 446.428C216.216 446.428 215.893 446.293 215.654 446.055C215.415 445.816 215.281 445.492 215.281 445.155C215.281 443.734 214.778 431.983 214.748 431.036C214.748 428.076 213.624 423.014 217.708 421.386C225.227 418.219 232.331 426.536 226.559 433.108L226.707 433.137ZM240.323 442.017C239.908 446.753 233.544 448.796 229.756 445.984C229.486 445.77 229.304 445.465 229.246 445.126C229.188 444.787 229.258 444.438 229.442 444.147C229.626 443.857 229.911 443.645 230.242 443.552C230.574 443.459 230.927 443.492 231.236 443.645C232.092 444.219 233.122 444.477 234.149 444.374C235.175 444.272 236.133 443.815 236.86 443.083C237.748 442.165 237.392 440.33 235.942 440.537C234.817 440.858 233.645 440.978 232.479 440.892C231.888 440.755 231.34 440.473 230.884 440.072C230.429 439.671 230.08 439.163 229.869 438.594C229.658 438.025 229.591 437.413 229.674 436.812C229.758 436.211 229.989 435.64 230.348 435.15C230.847 434.444 231.506 433.865 232.271 433.462C233.036 433.058 233.885 432.84 234.75 432.825C235.615 432.811 236.471 433 237.249 433.379C238.027 433.757 238.705 434.313 239.228 435.002C240.116 436.156 238.28 437.548 237.392 436.423C236.979 435.942 236.431 435.595 235.82 435.427C235.208 435.258 234.561 435.275 233.959 435.475C231.384 436.423 233.012 438.968 234.728 438.435C235.113 438.317 240.56 437.459 240.175 441.899L240.323 442.017ZM479.994 343.568C479.035 345.757 477.938 347.882 476.708 349.932C474.389 346.709 471.386 344.038 467.914 342.111C464.443 340.185 460.588 339.05 456.626 338.787C452.664 338.524 448.693 339.141 444.997 340.592C441.301 342.044 437.972 344.295 435.248 347.183C432.524 350.072 430.472 353.527 429.239 357.301C428.007 361.076 427.624 365.076 428.118 369.016C428.612 372.956 429.971 376.737 432.097 380.09C434.224 383.444 437.066 386.285 440.419 388.412C437.459 391.046 431.332 395.723 430.088 396.7L427.898 395.693C426.921 395.249 426.122 396.699 427.128 397.173C427.585 397.386 428.029 397.623 428.46 397.884C424.734 400.586 420.871 403.096 416.887 405.402C416.679 405.52 416.526 405.715 416.462 405.946C416.398 406.176 416.429 406.422 416.546 406.63C416.664 406.838 416.86 406.991 417.09 407.055C417.32 407.119 417.567 407.088 417.775 406.971C422.659 404.248 426.862 401.672 430.562 399.156C433.264 401.035 435.781 403.166 438.08 405.52C438.312 405.702 438.603 405.794 438.897 405.777C439.191 405.761 439.47 405.638 439.68 405.431C439.89 405.224 440.018 404.948 440.04 404.654C440.061 404.36 439.975 404.068 439.797 403.833C437.489 401.657 435.004 399.677 432.368 397.913C434.173 396.611 439.945 392.319 442.846 389.773C448.022 392.32 453.879 393.141 459.555 392.113C465.232 391.086 470.43 388.265 474.384 384.065C478.339 379.865 480.843 374.507 481.528 368.779C482.212 363.051 481.042 357.254 478.188 352.24C479.712 349.697 480.981 347.011 481.977 344.219C482.48 342.946 480.497 342.324 479.994 343.568ZM455.1 376.542C454.506 374.541 454.042 372.505 453.709 370.444L447.464 371.066C447.108 372.931 446.753 374.796 446.457 376.66C446.161 378.525 443.734 377.756 443.971 376.157C444.504 372.22 447.671 355.437 448.292 353.839C450.039 350.405 452.673 352.773 454.212 356.651C455.705 363.07 456.871 369.561 457.705 376.098C457.764 376.443 457.683 376.798 457.481 377.084C457.278 377.37 456.97 377.563 456.625 377.622C456.279 377.681 455.925 377.6 455.639 377.398C455.353 377.195 455.159 376.887 455.1 376.542ZM460.162 357.332C460.312 356.982 460.534 356.668 460.814 356.411C461.094 356.154 461.425 355.958 461.786 355.838C462.146 355.718 462.528 355.675 462.907 355.713C463.285 355.751 463.651 355.869 463.98 356.059C464.274 356.256 464.522 356.514 464.707 356.816C464.892 357.117 465.01 357.455 465.052 357.807C465.094 358.158 465.06 358.514 464.951 358.851C464.843 359.188 464.663 359.498 464.424 359.759C464.053 360.215 463.532 360.525 462.953 360.634C462.375 360.742 461.777 360.641 461.265 360.35C460.754 360.059 460.362 359.596 460.16 359.043C459.958 358.49 459.959 357.884 460.162 357.332ZM465.312 376.246C465.307 376.585 465.181 376.912 464.956 377.166C464.731 377.421 464.423 377.586 464.086 377.633C463.75 377.679 463.408 377.604 463.123 377.42C462.837 377.236 462.627 376.956 462.53 376.631C462.293 375.98 461.849 366.863 461.849 365.797C461.849 365.491 461.971 365.197 462.187 364.981C462.404 364.764 462.697 364.643 463.004 364.643C463.31 364.643 463.603 364.764 463.82 364.981C464.036 365.197 464.158 365.491 464.158 365.797C464.247 367.484 465.342 375.743 465.312 376.246Z" fill="black"/>
<path d="M448.056 368.135L453.206 367.573C452.69 363.963 451.818 360.413 450.601 356.976C449.92 359.936 448.677 365.205 448.056 368.135ZM162.8 495.622C160.314 497.102 162.356 501.128 165.76 499.618C165.76 497.665 165.583 496.214 165.524 495.534C165.096 495.329 164.625 495.231 164.151 495.246C163.677 495.261 163.214 495.391 162.8 495.622Z" fill="black"/>
<path d="M191.394 491.863C186.494 492.63 181.551 493.085 176.594 493.225C175.262 469.93 141.932 469.9 140.57 493.225C135.428 492.728 130.367 491.595 125.504 489.85C125.413 489.804 125.313 489.776 125.211 489.767C125.109 489.759 125.006 489.771 124.908 489.803C124.811 489.835 124.72 489.885 124.642 489.952C124.564 490.018 124.5 490.099 124.453 490.191C124.407 490.282 124.378 490.382 124.37 490.484C124.362 490.586 124.374 490.689 124.406 490.787C124.437 490.884 124.488 490.975 124.554 491.053C124.621 491.131 124.702 491.195 124.794 491.242C129.726 493.853 135.13 495.453 140.689 495.948C141.249 500.294 143.373 504.287 146.664 507.18C149.954 510.073 154.186 511.669 158.567 511.669C162.949 511.669 167.181 510.073 170.471 507.18C173.761 504.287 175.885 500.294 176.446 495.948C181.599 495.423 186.719 494.602 191.778 493.491C191.952 493.405 192.092 493.263 192.175 493.087C192.258 492.912 192.278 492.713 192.234 492.524C192.189 492.335 192.082 492.167 191.929 492.047C191.776 491.927 191.588 491.862 191.394 491.863ZM155.874 501.306C155.833 501.506 155.751 501.695 155.633 501.861C155.514 502.028 155.362 502.167 155.186 502.27C155.01 502.374 154.814 502.439 154.611 502.461C154.409 502.484 154.203 502.463 154.009 502.401C153.121 502.134 153.269 501.631 151.848 499.618C151.404 500.358 150.96 501.128 150.546 501.898C150.383 502.163 150.126 502.355 149.826 502.436C149.525 502.516 149.206 502.479 148.933 502.331C148.66 502.183 148.454 501.936 148.357 501.64C148.261 501.345 148.281 501.024 148.414 500.743C148.977 499.678 149.539 498.582 150.161 497.517C149.431 496.756 148.616 496.081 147.734 495.504C147.444 495.301 147.243 494.995 147.171 494.648C147.099 494.302 147.162 493.941 147.347 493.639C147.532 493.337 147.825 493.117 148.166 493.024C148.507 492.931 148.871 492.971 149.184 493.136C152.884 495.415 150.605 495.682 153.417 492.189C154.571 490.768 156.762 492.514 155.814 493.965C155.163 494.971 154.334 496.007 153.624 496.925C155.074 498.79 156.022 500.24 155.844 501.306H155.874ZM168.483 501.661C167.853 502.229 167.108 502.655 166.299 502.911C165.49 503.166 164.635 503.245 163.793 503.141C162.951 503.037 162.141 502.753 161.418 502.309C160.695 501.865 160.076 501.27 159.603 500.566C159.001 499.676 158.681 498.625 158.686 497.551C158.692 496.476 159.022 495.429 159.633 494.545C160.244 493.662 161.109 492.984 162.112 492.6C163.116 492.217 164.212 492.145 165.257 492.396C165.001 489.196 164.912 485.985 164.99 482.776C164.995 482.434 165.126 482.105 165.358 481.853C165.59 481.6 165.907 481.443 166.248 481.41C166.589 481.377 166.93 481.471 167.206 481.674C167.482 481.877 167.673 482.174 167.743 482.51C168.365 486.387 168.838 497.754 168.898 499.056C168.957 499.737 169.253 500.862 168.454 501.661H168.483ZM113.161 326.666C113.694 326.666 113.842 326.666 113.871 326.488C113.871 325.985 112.865 319.325 112.746 318.526C104.34 319.68 105.406 327.435 113.161 326.666Z" fill="black"/>
<path d="M134.088 298.605C130.579 299.086 127.1 299.768 123.669 300.647C120.91 297.967 117.546 295.992 113.861 294.887C110.177 293.783 106.281 293.582 102.502 294.302C98.7239 295.022 95.1746 296.642 92.1546 299.024C89.1347 301.406 86.733 304.48 85.1528 307.987C83.5726 311.494 82.8603 315.33 83.0764 319.17C83.2924 323.01 84.4304 326.742 86.3939 330.05C88.3575 333.357 91.0889 336.143 94.357 338.171C97.625 340.2 101.334 341.411 105.169 341.703C108.509 351.105 114.328 359.43 122.011 365.797C122.081 365.865 122.164 365.919 122.255 365.955C122.345 365.991 122.442 366.009 122.54 366.007C122.637 366.006 122.734 365.985 122.823 365.947C122.913 365.908 122.994 365.852 123.062 365.782C123.13 365.712 123.184 365.629 123.22 365.539C123.256 365.448 123.274 365.351 123.272 365.254C123.271 365.156 123.25 365.06 123.212 364.97C123.173 364.88 123.117 364.799 123.047 364.731C116.639 358.025 111.451 350.252 107.715 341.762C112.176 341.594 116.502 340.186 120.208 337.697C123.915 335.209 126.855 331.737 128.699 327.671C130.543 323.605 131.218 319.106 130.648 314.678C130.079 310.25 128.287 306.068 125.475 302.601C128.612 301.772 131.395 301.032 134.355 300.47C135.775 300.233 135.272 298.368 134.088 298.605ZM97.1473 328.56V306.538C97.193 306.245 97.3419 305.978 97.5671 305.785C97.7924 305.592 98.0792 305.486 98.3757 305.486C98.6723 305.486 98.9591 305.592 99.1844 305.785C99.4096 305.978 99.5585 306.245 99.6041 306.538C99.6041 310.919 100.107 325.6 100.196 328.56C100.094 328.884 99.891 329.167 99.6169 329.368C99.3427 329.569 99.0117 329.678 98.6717 329.678C98.3318 329.678 98.0007 329.569 97.7266 329.368C97.4525 329.167 97.2496 328.884 97.1473 328.56ZM115.263 328.856C109.343 332.023 101.439 326.37 105.169 319.769C105.987 318.594 107.082 317.639 108.357 316.988C109.633 316.337 111.049 316.012 112.48 316.039C111.986 312.814 111.689 309.562 111.592 306.301C111.608 305.98 111.736 305.675 111.955 305.44C112.173 305.205 112.468 305.055 112.787 305.016C113.106 304.977 113.428 305.052 113.697 305.227C113.966 305.403 114.164 305.668 114.256 305.975C114.759 308.107 116.18 322.285 116.328 324.15C116.387 325.6 117.039 327.761 115.263 328.708V328.856Z" fill="black"/>
</mask>
<g mask="url(#mask0_38_7)">
<rect width="592" height="592" fill="#D9D9D9"/>
</g>
</svg>
