<svg width="795" height="793" viewBox="0 0 795 793" fill="none" xmlns="http://www.w3.org/2000/svg">
<circle cx="396.5" cy="396.5" r="396.5" fill="url(#paint0_linear_26_24)"/>
<circle cx="319.5" cy="363.5" r="312.5" fill="url(#paint1_linear_26_24)"/>
<circle cx="251.5" cy="363.5" r="245.5" fill="url(#paint2_linear_26_24)"/>
<path d="M693.477 140.019C693.439 139.978 693.402 140.011 693.439 140.052C700.933 148.237 709.049 157.782 717.316 168.655C760.495 225.455 776.628 297.393 761.68 366.432C746.729 435.469 702.071 495.002 639.01 530.271L622 539.784L697.387 650.033C827.692 506.368 828.029 285.236 693.999 140.587C693.938 140.518 693.714 140.273 693.477 140.019Z" fill="url(#paint3_linear_26_24)"/>
<path d="M474.656 226.576C478.069 220.432 483.019 216.336 489.504 214.288C495.989 212.24 504.011 211.216 513.568 211.216C523.467 211.216 531.317 212.069 537.12 213.776C543.264 215.483 547.701 217.531 550.432 219.92C553.504 222.309 555.723 225.893 557.088 230.672C559.136 236.133 560.16 244.837 560.16 256.784V540.944C560.16 549.136 559.819 555.109 559.136 558.864C558.795 562.619 557.259 567.056 554.528 572.176C549.749 581.392 536.437 586 514.592 586C501.28 586 492.064 584.976 486.944 582.928C481.824 580.88 477.557 577.637 474.144 573.2C397.344 470.8 346.827 403.899 322.592 372.496V540.944C322.592 549.136 322.251 555.109 321.568 558.864C321.227 562.619 319.691 567.056 316.96 572.176C312.181 581.392 298.869 586 277.024 586C255.861 586 242.891 581.392 238.112 572.176C235.381 567.056 233.675 562.448 232.992 558.352C232.651 554.256 232.48 548.283 232.48 540.432V254.736C232.48 241.765 234.016 232.379 237.088 226.576C240.501 220.432 245.451 216.336 251.936 214.288C258.421 212.24 266.784 211.216 277.024 211.216C287.264 211.216 295.285 212.24 301.088 214.288C307.232 215.995 311.499 218.043 313.888 220.432C315.253 221.456 319.179 225.893 325.664 233.744C397.685 331.707 445.813 396.389 470.048 427.792V254.736C470.048 241.765 471.584 232.379 474.656 226.576Z" fill="white"/>
<defs>
<linearGradient id="paint0_linear_26_24" x1="130" y1="81" x2="604.5" y2="829" gradientUnits="userSpaceOnUse">
<stop stop-color="#0082FF"/>
<stop offset="1" stop-color="#1B61F0"/>
</linearGradient>
<linearGradient id="paint1_linear_26_24" x1="109.459" y1="114.84" x2="483.434" y2="704.373" gradientUnits="userSpaceOnUse">
<stop stop-color="#0091FE"/>
<stop offset="1" stop-color="#172CCE"/>
</linearGradient>
<linearGradient id="paint2_linear_26_24" x1="86.4918" y1="168.153" x2="380.287" y2="631.29" gradientUnits="userSpaceOnUse">
<stop stop-color="#0091FE"/>
<stop offset="1" stop-color="#0019D6"/>
</linearGradient>
<linearGradient id="paint3_linear_26_24" x1="632.515" y1="532.273" x2="763.537" y2="259.896" gradientUnits="userSpaceOnUse">
<stop stop-color="#0092FF"/>
<stop offset="1" stop-color="#45B2FF"/>
</linearGradient>
</defs>
</svg>
